<svg width="33" height="28" viewBox="0 0 33 28" fill="none" xmlns="http://www.w3.org/2000/svg">
<path d="M13.376 20.16C12.4907 20.16 11.6907 19.936 10.976 19.488C10.272 19.04 9.71733 18.3893 9.312 17.536C8.90667 16.672 8.704 15.6267 8.704 14.4C8.704 13.1733 8.90667 12.1333 9.312 11.28C9.71733 10.416 10.272 9.76 10.976 9.312C11.6907 8.864 12.4907 8.64 13.376 8.64C14.272 8.64 15.072 8.864 15.776 9.312C16.48 9.76 17.0347 10.416 17.44 11.28C17.856 12.1333 18.064 13.1733 18.064 14.4C18.064 15.6267 17.856 16.672 17.44 17.536C17.0347 18.3893 16.48 19.04 15.776 19.488C15.072 19.936 14.272 20.16 13.376 20.16ZM13.376 18.352C13.8987 18.352 14.352 18.2133 14.736 17.936C15.12 17.648 15.4187 17.2107 15.632 16.624C15.856 16.0373 15.968 15.296 15.968 14.4C15.968 13.4933 15.856 12.752 15.632 12.176C15.4187 11.5893 15.12 11.1573 14.736 10.88C14.352 10.592 13.8987 10.448 13.376 10.448C12.8747 10.448 12.4267 10.592 12.032 10.88C11.648 11.1573 11.344 11.5893 11.12 12.176C10.9067 12.752 10.8 13.4933 10.8 14.4C10.8 15.296 10.9067 16.0373 11.12 16.624C11.344 17.2107 11.648 17.648 12.032 17.936C12.4267 18.2133 12.8747 18.352 13.376 18.352ZM21.246 20V9.6L22.158 10.544H18.878V8.8H23.326V20H21.246Z" fill="#F1F5F9"/>
<rect x="0.5" y="0.5" width="32" height="27" rx="13.5" stroke="#F1F5F9"/>
</svg>
