<svg width="25" height="24" viewBox="0 0 25 24" fill="none" xmlns="http://www.w3.org/2000/svg">
<path d="M10.3252 7.875C10.3252 7.57833 10.4132 7.28832 10.578 7.04164C10.7428 6.79497 10.9771 6.60271 11.2512 6.48918C11.5253 6.37565 11.8269 6.34594 12.1178 6.40382C12.4088 6.4617 12.6761 6.60456 12.8859 6.81434C13.0956 7.02412 13.2385 7.29139 13.2964 7.58236C13.3543 7.87334 13.3246 8.17494 13.211 8.44902C13.0975 8.72311 12.9052 8.95738 12.6586 9.1222C12.4119 9.28703 12.1219 9.375 11.8252 9.375C11.4274 9.375 11.0458 9.21696 10.7645 8.93566C10.4832 8.65436 10.3252 8.27282 10.3252 7.875ZM22.3252 12C22.3252 14.0025 21.7314 15.9601 20.6188 17.6251C19.5063 19.2902 17.925 20.5879 16.0749 21.3543C14.2248 22.1206 12.189 22.3211 10.2249 21.9305C8.26085 21.5398 6.45675 20.5755 5.04074 19.1595C3.62474 17.7435 2.66042 15.9393 2.26975 13.9753C1.87907 12.0112 2.07958 9.97543 2.84592 8.12533C3.61226 6.27523 4.91 4.69392 6.57505 3.58137C8.2401 2.46882 10.1977 1.875 12.2002 1.875C14.8846 1.87798 17.4582 2.94567 19.3564 4.84383C21.2545 6.74199 22.3222 9.3156 22.3252 12ZM20.0752 12C20.0752 10.4425 19.6133 8.91992 18.748 7.62488C17.8827 6.32985 16.6528 5.32049 15.2138 4.72445C13.7749 4.12841 12.1915 3.97246 10.6639 4.27632C9.13626 4.58017 7.73307 5.3302 6.63173 6.43153C5.5304 7.53287 4.78037 8.93606 4.47652 10.4637C4.17266 11.9913 4.32861 13.5747 4.92465 15.0136C5.52069 16.4526 6.53005 17.6825 7.82508 18.5478C9.12012 19.4131 10.6427 19.875 12.2002 19.875C14.2881 19.8728 16.2898 19.0424 17.7662 17.566C19.2426 16.0896 20.073 14.0879 20.0752 12ZM13.3252 15.4387V12.375C13.3252 11.8777 13.1277 11.4008 12.776 11.0492C12.4244 10.6975 11.9475 10.5 11.4502 10.5C11.1845 10.4996 10.9273 10.5932 10.724 10.7643C10.5208 10.9354 10.3846 11.173 10.3397 11.4348C10.2948 11.6967 10.344 11.966 10.4786 12.195C10.6132 12.4241 10.8246 12.5981 11.0752 12.6863V15.75C11.0752 16.2473 11.2727 16.7242 11.6244 17.0758C11.976 17.4275 12.4529 17.625 12.9502 17.625C13.2159 17.6254 13.4731 17.5318 13.6764 17.3607C13.8796 17.1896 14.0158 16.952 14.0607 16.6902C14.1056 16.4283 14.0564 16.159 13.9218 15.93C13.7872 15.7009 13.5758 15.5269 13.3252 15.4387Z" fill="#CBD5E1"/>
</svg>
