<svg width="40" height="40" viewBox="0 0 40 40" fill="none" xmlns="http://www.w3.org/2000/svg">
<rect width="40" height="40" rx="20" fill="#FDD300"/>
<path d="M17 17V27C17 27.2652 16.8946 27.5196 16.7071 27.7071C16.5196 27.8946 16.2652 28 16 28C15.7348 28 15.4804 27.8946 15.2929 27.7071C15.1054 27.5196 15 27.2652 15 27V17C15 16.7348 15.1054 16.4804 15.2929 16.2929C15.4804 16.1054 15.7348 16 16 16C16.2652 16 16.5196 16.1054 16.7071 16.2929C16.8946 16.4804 17 16.7348 17 17ZM22 16C21.7348 16 21.4804 16.1054 21.2929 16.2929C21.1054 16.4804 21 16.7348 21 17V27C21 27.2652 21.1054 27.5196 21.2929 27.7071C21.4804 27.8946 21.7348 28 22 28C22.2652 28 22.5196 27.8946 22.7071 27.7071C22.8946 27.5196 23 27.2652 23 27V17C23 16.7348 22.8946 16.4804 22.7071 16.2929C22.5196 16.1054 22.2652 16 22 16ZM34 18V26C34 26.7956 33.6839 27.5587 33.1213 28.1213C32.5587 28.6839 31.7956 29 31 29H29V30C29 30.5304 28.7893 31.0391 28.4142 31.4142C28.0391 31.7893 27.5304 32 27 32H11C10.4696 32 9.96086 31.7893 9.58579 31.4142C9.21071 31.0391 9 30.5304 9 30V13C9 9.14 12.5887 6 17 6C19.0963 6 21.1138 6.725 22.6025 8H24C25.3261 8 26.5979 8.52678 27.5355 9.46447C28.4732 10.4021 29 11.6739 29 13V15H31C31.7956 15 32.5587 15.3161 33.1213 15.8787C33.6839 16.4413 34 17.2044 34 18ZM11.125 12H26.8275C26.6208 11.4152 26.2379 10.9089 25.7315 10.5508C25.2251 10.1926 24.6202 10.0002 24 10H22.2175C21.9599 9.99997 21.7123 9.90057 21.5263 9.7225C20.3825 8.625 18.7337 8 17 8C14.1025 8 11.6787 9.72 11.125 12ZM27 30V14H11V30H27ZM32 18C32 17.7348 31.8946 17.4804 31.7071 17.2929C31.5196 17.1054 31.2652 17 31 17H29V27H31C31.2652 27 31.5196 26.8946 31.7071 26.7071C31.8946 26.5196 32 26.2652 32 26V18Z" fill="#475569"/>
</svg>
