<svg width="56" height="56" viewBox="0 0 56 56" fill="none" xmlns="http://www.w3.org/2000/svg">
<rect width="56" height="56" rx="28" fill="#FDD300"/>
<path d="M40.75 26.0001C40.75 25.2708 40.4603 24.5713 39.9445 24.0556C39.4288 23.5399 38.7293 23.2501 38 23.2501H28.75V21.6751C29.5965 21.5012 30.3571 21.0406 30.9036 20.3712C31.4501 19.7017 31.749 18.8643 31.75 18.0001C31.75 14.6376 28.5525 12.4664 28.4163 12.3751C28.293 12.2929 28.1482 12.249 28 12.249C27.8518 12.249 27.707 12.2929 27.5837 12.3751C27.4475 12.4664 24.25 14.6376 24.25 18.0001C24.251 18.8643 24.5499 19.7017 25.0964 20.3712C25.6429 21.0406 26.4035 21.5012 27.25 21.6751V23.2501H18C17.2707 23.2501 16.5712 23.5399 16.0555 24.0556C15.5397 24.5713 15.25 25.2708 15.25 26.0001V28.9164C15.2508 29.9816 15.6022 31.017 16.25 31.8626V37.0001C16.25 37.7295 16.5397 38.429 17.0555 38.9447C17.5712 39.4604 18.2707 39.7501 19 39.7501H37C37.7293 39.7501 38.4288 39.4604 38.9445 38.9447C39.4603 38.429 39.75 37.7295 39.75 37.0001V31.8626C40.3978 31.017 40.7492 29.9816 40.75 28.9164V26.0001ZM25.75 18.0001C25.75 16.0751 27.25 14.5739 28 13.9451C28.75 14.5701 30.25 16.0701 30.25 18.0001C30.25 18.5969 30.0129 19.1692 29.591 19.5911C29.169 20.0131 28.5967 20.2501 28 20.2501C27.4033 20.2501 26.831 20.0131 26.409 19.5911C25.9871 19.1692 25.75 18.5969 25.75 18.0001ZM16.75 26.0001C16.75 25.6686 16.8817 25.3507 17.1161 25.1163C17.3505 24.8818 17.6685 24.7501 18 24.7501H38C38.3315 24.7501 38.6495 24.8818 38.8839 25.1163C39.1183 25.3507 39.25 25.6686 39.25 26.0001V28.9164C39.25 30.7064 37.8338 32.2014 36.0925 32.2489C35.6581 32.2613 35.2256 32.1864 34.8206 32.0287C34.4157 31.871 34.0465 31.6336 33.7348 31.3307C33.4232 31.0279 33.1755 30.6655 33.0063 30.2652C32.8371 29.8649 32.75 29.4347 32.75 29.0001C32.75 28.8012 32.671 28.6105 32.5303 28.4698C32.3897 28.3292 32.1989 28.2501 32 28.2501C31.8011 28.2501 31.6103 28.3292 31.4697 28.4698C31.329 28.6105 31.25 28.8012 31.25 29.0001C31.25 29.8621 30.9076 30.6887 30.2981 31.2982C29.6886 31.9077 28.862 32.2501 28 32.2501C27.138 32.2501 26.3114 31.9077 25.7019 31.2982C25.0924 30.6887 24.75 29.8621 24.75 29.0001C24.75 28.8012 24.671 28.6105 24.5303 28.4698C24.3897 28.3292 24.1989 28.2501 24 28.2501C23.8011 28.2501 23.6103 28.3292 23.4697 28.4698C23.329 28.6105 23.25 28.8012 23.25 29.0001C23.2502 29.4348 23.1631 29.8651 22.9941 30.2656C22.825 30.6661 22.5773 31.0285 22.2656 31.3316C21.954 31.6346 21.5847 31.872 21.1796 32.0298C20.7746 32.1876 20.342 32.2625 19.9075 32.2501C18.1662 32.2014 16.75 30.7064 16.75 28.9164V26.0001ZM37 38.2501H19C18.6685 38.2501 18.3505 38.1184 18.1161 37.884C17.8817 37.6496 17.75 37.3317 17.75 37.0001V33.1639C18.3981 33.5275 19.1247 33.7286 19.8675 33.7501C20.5026 33.769 21.1351 33.6596 21.727 33.4285C22.3189 33.1974 22.8581 32.8493 23.3125 32.4051C23.5725 32.1509 23.8031 31.8683 24 31.5626C24.4297 32.2336 25.0213 32.7857 25.7203 33.1681C26.4193 33.5505 27.2032 33.7509 28 33.7509C28.7968 33.7509 29.5807 33.5505 30.2797 33.1681C30.9787 32.7857 31.5703 32.2336 32 31.5626C32.1977 31.8685 32.4291 32.1511 32.69 32.4051C33.5742 33.2702 34.763 33.7532 36 33.7501H36.1338C36.8762 33.7284 37.6023 33.5273 38.25 33.1639V37.0001C38.25 37.3317 38.1183 37.6496 37.8839 37.884C37.6495 38.1184 37.3315 38.2501 37 38.2501Z" fill="#3F3F46"/>
</svg>
