<svg width="32" height="32" viewBox="0 0 32 32" fill="none" xmlns="http://www.w3.org/2000/svg">
<path d="M26 4.25H22.75V3C22.75 2.80109 22.671 2.61032 22.5303 2.46967C22.3897 2.32902 22.1989 2.25 22 2.25C21.8011 2.25 21.6103 2.32902 21.4697 2.46967C21.329 2.61032 21.25 2.80109 21.25 3V4.25H10.75V3C10.75 2.80109 10.671 2.61032 10.5303 2.46967C10.3897 2.32902 10.1989 2.25 10 2.25C9.80109 2.25 9.61032 2.32902 9.46967 2.46967C9.32902 2.61032 9.25 2.80109 9.25 3V4.25H6C5.53587 4.25 5.09075 4.43437 4.76256 4.76256C4.43437 5.09075 4.25 5.53587 4.25 6V26C4.25 26.4641 4.43437 26.9092 4.76256 27.2374C5.09075 27.5656 5.53587 27.75 6 27.75H26C26.4641 27.75 26.9092 27.5656 27.2374 27.2374C27.5656 26.9092 27.75 26.4641 27.75 26V6C27.75 5.53587 27.5656 5.09075 27.2374 4.76256C26.9092 4.43437 26.4641 4.25 26 4.25ZM6 5.75H9.25V7C9.25 7.19891 9.32902 7.38968 9.46967 7.53033C9.61032 7.67098 9.80109 7.75 10 7.75C10.1989 7.75 10.3897 7.67098 10.5303 7.53033C10.671 7.38968 10.75 7.19891 10.75 7V5.75H21.25V7C21.25 7.19891 21.329 7.38968 21.4697 7.53033C21.6103 7.67098 21.8011 7.75 22 7.75C22.1989 7.75 22.3897 7.67098 22.5303 7.53033C22.671 7.38968 22.75 7.19891 22.75 7V5.75H26C26.0663 5.75 26.1299 5.77634 26.1768 5.82322C26.2237 5.87011 26.25 5.9337 26.25 6V10.25H5.75V6C5.75 5.9337 5.77634 5.87011 5.82322 5.82322C5.87011 5.77634 5.9337 5.75 6 5.75ZM26 26.25H6C5.9337 26.25 5.87011 26.2237 5.82322 26.1768C5.77634 26.1299 5.75 26.0663 5.75 26V11.75H26.25V26C26.25 26.0663 26.2237 26.1299 26.1768 26.1768C26.1299 26.2237 26.0663 26.25 26 26.25ZM21.03 15.47C21.1705 15.6106 21.2493 15.8012 21.2493 16C21.2493 16.1988 21.1705 16.3894 21.03 16.53L15.03 22.53C14.8894 22.6705 14.6988 22.7493 14.5 22.7493C14.3012 22.7493 14.1106 22.6705 13.97 22.53L10.97 19.53C10.8375 19.3878 10.7654 19.1998 10.7688 19.0055C10.7723 18.8112 10.851 18.6258 10.9884 18.4884C11.1258 18.351 11.3112 18.2723 11.5055 18.2688C11.6998 18.2654 11.8878 18.3375 12.03 18.47L14.5 20.9387L19.97 15.47C20.1106 15.3295 20.3012 15.2507 20.5 15.2507C20.6988 15.2507 20.8894 15.3295 21.03 15.47Z" fill="#CBD5E1"/>
</svg>
