<svg width="41" height="40" viewBox="0 0 41 40" fill="none" xmlns="http://www.w3.org/2000/svg">
<rect x="0.5" width="40" height="40" rx="20" fill="#FDD300"/>
<path d="M22.2825 5.25002H16.7063C16.5492 5.25145 16.3965 5.30217 16.2698 5.39502C16.1431 5.48787 16.0487 5.61816 16 5.76752C15.8163 6.33127 11.5588 19.6088 15.2688 24.7138C16.1125 25.8738 17.2813 26.5413 18.7513 26.7075V33.25H16.5C16.3011 33.25 16.1104 33.329 15.9697 33.4697C15.829 33.6103 15.75 33.8011 15.75 34C15.75 34.1989 15.829 34.3897 15.9697 34.5304C16.1104 34.671 16.3011 34.75 16.5 34.75H22.5C22.6989 34.75 22.8897 34.671 23.0304 34.5304C23.171 34.3897 23.25 34.1989 23.25 34C23.25 33.8011 23.171 33.6103 23.0304 33.4697C22.8897 33.329 22.6989 33.25 22.5 33.25H20.25V26.7075C21.72 26.5413 22.8888 25.8738 23.7313 24.7138C27.4413 19.6088 23.185 6.33127 23.0013 5.76752C22.9519 5.61614 22.8557 5.48439 22.7264 5.39135C22.5972 5.29831 22.4418 5.24881 22.2825 5.25002ZM17.26 6.75002H21.7288C22.0088 7.68502 22.6038 9.78627 23.0725 12.25H15.9175C16.3863 9.78627 16.9813 7.68502 17.26 6.75002ZM22.51 23.8325C21.8188 24.7863 20.8325 25.25 19.5 25.25C18.1675 25.25 17.175 24.7863 16.4825 23.8325C15.1825 22.0525 14.9013 18.5688 15.6563 13.75H23.3338C24.0888 18.5688 23.8063 22.0525 22.5125 23.8325H22.51ZM33.25 10.5C33.25 10.7472 33.1767 10.9889 33.0394 11.1945C32.902 11.4 32.7068 11.5603 32.4784 11.6549C32.25 11.7495 31.9986 11.7742 31.7562 11.726C31.5137 11.6778 31.291 11.5587 31.1161 11.3839C30.9413 11.2091 30.8223 10.9864 30.774 10.7439C30.7258 10.5014 30.7506 10.2501 30.8452 10.0217C30.9398 9.79326 31.1 9.59804 31.3056 9.46068C31.5111 9.32333 31.7528 9.25002 32 9.25002C32.3315 9.25002 32.6495 9.38172 32.8839 9.61614C33.1183 9.85056 33.25 10.1685 33.25 10.5ZM30.25 6.50002C30.25 6.74725 30.1767 6.98892 30.0394 7.19448C29.902 7.40005 29.7068 7.56026 29.4784 7.65487C29.25 7.74948 28.9986 7.77424 28.7562 7.726C28.5137 7.67777 28.291 7.55872 28.1161 7.38391C27.9413 7.20909 27.8223 6.98636 27.774 6.74388C27.7258 6.50141 27.7506 6.25007 27.8452 6.02167C27.9398 5.79326 28.1 5.59804 28.3056 5.46068C28.5111 5.32333 28.7528 5.25002 29 5.25002C29.3315 5.25002 29.6495 5.38172 29.8839 5.61614C30.1183 5.85056 30.25 6.1685 30.25 6.50002ZM30.25 16.5C30.25 16.7472 30.1767 16.9889 30.0394 17.1945C29.902 17.4 29.7068 17.5603 29.4784 17.6549C29.25 17.7495 28.9986 17.7742 28.7562 17.726C28.5137 17.6778 28.291 17.5587 28.1161 17.3839C27.9413 17.2091 27.8223 16.9864 27.774 16.7439C27.7258 16.5014 27.7506 16.2501 27.8452 16.0217C27.9398 15.7933 28.1 15.598 28.3056 15.4607C28.5111 15.3233 28.7528 15.25 29 15.25C29.3315 15.25 29.6495 15.3817 29.8839 15.6161C30.1183 15.8506 30.25 16.1685 30.25 16.5Z" fill="#3F3F46"/>
</svg>
