<svg width="25" height="24" viewBox="0 0 25 24" fill="none" xmlns="http://www.w3.org/2000/svg">
<path d="M8.19897 16.35C8.27779 16.4092 8.36752 16.4524 8.46302 16.4769C8.55852 16.5014 8.65793 16.5069 8.75554 16.4929C8.85315 16.479 8.94706 16.446 9.03189 16.3957C9.11672 16.3454 9.1908 16.2789 9.2499 16.2C9.70399 15.5945 10.2928 15.1031 10.9697 14.7647C11.6467 14.4262 12.3931 14.25 13.1499 14.25C13.9067 14.25 14.6531 14.4262 15.3301 14.7647C16.007 15.1031 16.5958 15.5945 17.0499 16.2C17.109 16.2788 17.183 16.3452 17.2678 16.3954C17.3525 16.4455 17.4463 16.4785 17.5438 16.4925C17.6413 16.5064 17.7406 16.501 17.836 16.4765C17.9314 16.4521 18.0211 16.4091 18.0999 16.35C18.1787 16.2909 18.2451 16.2169 18.2953 16.1321C18.3454 16.0474 18.3784 15.9536 18.3924 15.8561C18.4063 15.7586 18.4009 15.6593 18.3764 15.5639C18.352 15.4685 18.309 15.3788 18.2499 15.3C17.5858 14.4096 16.7002 13.7086 15.6812 13.2666C16.2396 12.7567 16.6309 12.0899 16.8036 11.3537C16.9763 10.6175 16.9224 9.84624 16.649 9.14121C16.3755 8.43617 15.8953 7.83028 15.2714 7.40304C14.6475 6.9758 13.9089 6.74718 13.1527 6.74718C12.3965 6.74718 11.658 6.9758 11.034 7.40304C10.4101 7.83028 9.92989 8.43617 9.65645 9.14121C9.38302 9.84624 9.32912 10.6175 9.50184 11.3537C9.67456 12.0899 10.0658 12.7567 10.6243 13.2666C9.60319 13.7077 8.71557 14.4088 8.0499 15.3C7.93045 15.459 7.87906 15.659 7.90701 15.8559C7.93496 16.0528 8.03998 16.2305 8.19897 16.35ZM10.8999 10.5C10.8999 10.055 11.0319 9.61998 11.2791 9.24997C11.5263 8.87996 11.8777 8.59157 12.2889 8.42127C12.7 8.25097 13.1524 8.20642 13.5889 8.29323C14.0253 8.38005 14.4262 8.59434 14.7409 8.90901C15.0556 9.22368 15.2699 9.62459 15.3567 10.061C15.4435 10.4975 15.3989 10.9499 15.2286 11.361C15.0583 11.7722 14.7699 12.1236 14.3999 12.3708C14.0299 12.618 13.5949 12.75 13.1499 12.75C12.5532 12.75 11.9809 12.5129 11.5589 12.091C11.137 11.669 10.8999 11.0967 10.8999 10.5ZM19.8999 2.25H6.3999C6.00208 2.25 5.62055 2.40804 5.33924 2.68934C5.05794 2.97064 4.8999 3.35218 4.8999 3.75V6H3.3999C3.20099 6 3.01022 6.07902 2.86957 6.21967C2.72892 6.36032 2.6499 6.55109 2.6499 6.75C2.6499 6.94891 2.72892 7.13968 2.86957 7.28033C3.01022 7.42098 3.20099 7.5 3.3999 7.5H4.8999V11.25H3.3999C3.20099 11.25 3.01022 11.329 2.86957 11.4697C2.72892 11.6103 2.6499 11.8011 2.6499 12C2.6499 12.1989 2.72892 12.3897 2.86957 12.5303C3.01022 12.671 3.20099 12.75 3.3999 12.75H4.8999V16.5H3.3999C3.20099 16.5 3.01022 16.579 2.86957 16.7197C2.72892 16.8603 2.6499 17.0511 2.6499 17.25C2.6499 17.4489 2.72892 17.6397 2.86957 17.7803C3.01022 17.921 3.20099 18 3.3999 18H4.8999V20.25C4.8999 20.6478 5.05794 21.0294 5.33924 21.3107C5.62055 21.592 6.00208 21.75 6.3999 21.75H19.8999C20.2977 21.75 20.6793 21.592 20.9606 21.3107C21.2419 21.0294 21.3999 20.6478 21.3999 20.25V3.75C21.3999 3.35218 21.2419 2.97064 20.9606 2.68934C20.6793 2.40804 20.2977 2.25 19.8999 2.25ZM19.8999 20.25H6.3999V3.75H19.8999V20.25Z" fill="#E2E8F0"/>
</svg>
