<svg width="52" height="52" viewBox="0 0 52 52" fill="none" xmlns="http://www.w3.org/2000/svg">
<rect width="52" height="52" rx="26" fill="#3F3F46"/>
<path d="M21.25 16V12C21.25 11.8011 21.329 11.6103 21.4697 11.4697C21.6103 11.329 21.8011 11.25 22 11.25C22.1989 11.25 22.3897 11.329 22.5303 11.4697C22.671 11.6103 22.75 11.8011 22.75 12V16C22.75 16.1989 22.671 16.3897 22.5303 16.5303C22.3897 16.671 22.1989 16.75 22 16.75C21.8011 16.75 21.6103 16.671 21.4697 16.5303C21.329 16.3897 21.25 16.1989 21.25 16ZM26 16.75C26.1989 16.75 26.3897 16.671 26.5303 16.5303C26.671 16.3897 26.75 16.1989 26.75 16V12C26.75 11.8011 26.671 11.6103 26.5303 11.4697C26.3897 11.329 26.1989 11.25 26 11.25C25.8011 11.25 25.6103 11.329 25.4697 11.4697C25.329 11.6103 25.25 11.8011 25.25 12V16C25.25 16.1989 25.329 16.3897 25.4697 16.5303C25.6103 16.671 25.8011 16.75 26 16.75ZM30 16.75C30.1989 16.75 30.3897 16.671 30.5303 16.5303C30.671 16.3897 30.75 16.1989 30.75 16V12C30.75 11.8011 30.671 11.6103 30.5303 11.4697C30.3897 11.329 30.1989 11.25 30 11.25C29.8011 11.25 29.6103 11.329 29.4697 11.4697C29.329 11.6103 29.25 11.8011 29.25 12V16C29.25 16.1989 29.329 16.3897 29.4697 16.5303C29.6103 16.671 29.8011 16.75 30 16.75ZM41.45 22.6L37.75 25.375V33C37.75 33.9946 37.3549 34.9484 36.6517 35.6517C35.9484 36.3549 34.9946 36.75 34 36.75H18C17.0054 36.75 16.0516 36.3549 15.3484 35.6517C14.6451 34.9484 14.25 33.9946 14.25 33V25.375L10.55 22.6C10.3909 22.4807 10.2857 22.303 10.2575 22.1061C10.2294 21.9092 10.2807 21.7091 10.4 21.55C10.5194 21.3909 10.697 21.2857 10.8939 21.2575C11.0909 21.2294 11.2909 21.2807 11.45 21.4L14.25 23.5V21C14.25 20.5359 14.4344 20.0908 14.7626 19.7626C15.0908 19.4344 15.5359 19.25 16 19.25H36C36.4641 19.25 36.9093 19.4344 37.2374 19.7626C37.5656 20.0908 37.75 20.5359 37.75 21V23.5L40.55 21.4C40.7091 21.2807 40.9092 21.2294 41.1061 21.2575C41.303 21.2857 41.4807 21.3909 41.6 21.55C41.7194 21.7091 41.7706 21.9092 41.7425 22.1061C41.7143 22.303 41.6091 22.4807 41.45 22.6ZM36.25 21C36.25 20.9337 36.2237 20.8701 36.1768 20.8232C36.1299 20.7763 36.0663 20.75 36 20.75H16C15.9337 20.75 15.8701 20.7763 15.8232 20.8232C15.7763 20.8701 15.75 20.9337 15.75 21V33C15.75 33.5967 15.9871 34.169 16.409 34.591C16.831 35.0129 17.4033 35.25 18 35.25H34C34.5967 35.25 35.169 35.0129 35.591 34.591C36.013 34.169 36.25 33.5967 36.25 33V21Z" fill="#FDD300"/>
</svg>
