<svg width="41" height="40" viewBox="0 0 41 40" fill="none" xmlns="http://www.w3.org/2000/svg">
<rect x="0.5" width="40" height="40" rx="20" fill="#FDD300"/>
<g clip-path="url(#clip0_2312_1622)">
<path d="M15.75 10V6C15.75 5.80109 15.829 5.61032 15.9697 5.46967C16.1103 5.32902 16.3011 5.25 16.5 5.25C16.6989 5.25 16.8897 5.32902 17.0303 5.46967C17.171 5.61032 17.25 5.80109 17.25 6V10C17.25 10.1989 17.171 10.3897 17.0303 10.5303C16.8897 10.671 16.6989 10.75 16.5 10.75C16.3011 10.75 16.1103 10.671 15.9697 10.5303C15.829 10.3897 15.75 10.1989 15.75 10ZM20.5 10.75C20.6989 10.75 20.8897 10.671 21.0303 10.5303C21.171 10.3897 21.25 10.1989 21.25 10V6C21.25 5.80109 21.171 5.61032 21.0303 5.46967C20.8897 5.32902 20.6989 5.25 20.5 5.25C20.3011 5.25 20.1103 5.32902 19.9697 5.46967C19.829 5.61032 19.75 5.80109 19.75 6V10C19.75 10.1989 19.829 10.3897 19.9697 10.5303C20.1103 10.671 20.3011 10.75 20.5 10.75ZM24.5 10.75C24.6989 10.75 24.8897 10.671 25.0303 10.5303C25.171 10.3897 25.25 10.1989 25.25 10V6C25.25 5.80109 25.171 5.61032 25.0303 5.46967C24.8897 5.32902 24.6989 5.25 24.5 5.25C24.3011 5.25 24.1103 5.32902 23.9697 5.46967C23.829 5.61032 23.75 5.80109 23.75 6V10C23.75 10.1989 23.829 10.3897 23.9697 10.5303C24.1103 10.671 24.3011 10.75 24.5 10.75ZM35.95 16.6L32.25 19.375V27C32.25 27.9946 31.8549 28.9484 31.1517 29.6517C30.4484 30.3549 29.4946 30.75 28.5 30.75H12.5C11.5054 30.75 10.5516 30.3549 9.84835 29.6517C9.14509 28.9484 8.75 27.9946 8.75 27V19.375L5.05 16.6C4.89087 16.4807 4.78567 16.303 4.75754 16.1061C4.72941 15.9092 4.78066 15.7091 4.9 15.55C5.01935 15.3909 5.19702 15.2857 5.39394 15.2575C5.59085 15.2294 5.79087 15.2807 5.95 15.4L8.75 17.5V15C8.75 14.5359 8.93438 14.0908 9.26257 13.7626C9.59075 13.4344 10.0359 13.25 10.5 13.25H30.5C30.9641 13.25 31.4093 13.4344 31.7374 13.7626C32.0656 14.0908 32.25 14.5359 32.25 15V17.5L35.05 15.4C35.2091 15.2807 35.4092 15.2294 35.6061 15.2575C35.803 15.2857 35.9807 15.3909 36.1 15.55C36.2194 15.7091 36.2706 15.9092 36.2425 16.1061C36.2143 16.303 36.1091 16.4807 35.95 16.6ZM30.75 15C30.75 14.9337 30.7237 14.8701 30.6768 14.8232C30.6299 14.7763 30.5663 14.75 30.5 14.75H10.5C10.4337 14.75 10.3701 14.7763 10.3232 14.8232C10.2763 14.8701 10.25 14.9337 10.25 15V27C10.25 27.5967 10.4871 28.169 10.909 28.591C11.331 29.0129 11.9033 29.25 12.5 29.25H28.5C29.0967 29.25 29.669 29.0129 30.091 28.591C30.513 28.169 30.75 27.5967 30.75 27V15Z" fill="#3F3F46"/>
</g>
<defs>
<clipPath id="clip0_2312_1622">
<rect width="32" height="32" fill="white" transform="translate(4.5 4)"/>
</clipPath>
</defs>
</svg>
