<svg width="40" height="40" viewBox="0 0 40 40" fill="none" xmlns="http://www.w3.org/2000/svg">
<rect width="40" height="40" rx="20" fill="#FDD300"/>
<path d="M25.75 9.96877C24.206 8.18557 22.4682 6.57984 20.5688 5.18127C20.4006 5.06349 20.2003 5.00031 19.995 5.00031C19.7897 5.00031 19.5894 5.06349 19.4213 5.18127C17.5253 6.58042 15.7909 8.18613 14.25 9.96877C10.8138 13.915 9 18.075 9 22C9 24.9174 10.1589 27.7153 12.2218 29.7782C14.2847 31.8411 17.0826 33 20 33C22.9174 33 25.7153 31.8411 27.7782 29.7782C29.8411 27.7153 31 24.9174 31 22C31 18.075 29.1862 13.915 25.75 9.96877ZM20 31C17.6139 30.9974 15.3262 30.0483 13.639 28.3611C11.9517 26.6738 11.0026 24.3862 11 22C11 14.8463 17.9337 8.87502 20 7.25002C22.0663 8.87502 29 14.8438 29 22C28.9974 24.3862 28.0483 26.6738 26.361 28.3611C24.6738 30.0483 22.3861 30.9974 20 31ZM26.9862 23.1675C26.7269 24.6159 26.0301 25.9501 24.9896 26.9904C23.949 28.0307 22.6147 28.7273 21.1663 28.9863C21.1113 28.9951 21.0557 28.9997 21 29C20.7492 29 20.5075 28.9056 20.323 28.7357C20.1384 28.5658 20.0245 28.3328 20.0037 28.0828C19.9829 27.8328 20.0569 27.5842 20.2108 27.3862C20.3648 27.1881 20.5876 27.0552 20.835 27.0138C22.9062 26.665 24.6637 24.9075 25.015 22.8325C25.0594 22.571 25.2059 22.3377 25.4223 22.1842C25.6387 22.0307 25.9072 21.9694 26.1688 22.0138C26.4303 22.0582 26.6635 22.2047 26.8171 22.4211C26.9706 22.6375 27.0319 22.906 26.9875 23.1675H26.9862Z" fill="#3F3F46"/>
</svg>
