<svg width="32" height="33" viewBox="0 0 32 33" fill="none" xmlns="http://www.w3.org/2000/svg">
<path d="M16 3.5C13.4288 3.5 10.9154 4.26244 8.77759 5.6909C6.63975 7.11935 4.97351 9.14968 3.98957 11.5251C3.00563 13.9006 2.74819 16.5144 3.2498 19.0362C3.75141 21.5579 4.98953 23.8743 6.80762 25.6924C8.6257 27.5105 10.9421 28.7486 13.4638 29.2502C15.9856 29.7518 18.5995 29.4944 20.9749 28.5104C23.3503 27.5265 25.3807 25.8603 26.8091 23.7224C28.2376 21.5846 29 19.0712 29 16.5C28.9964 13.0533 27.6256 9.74882 25.1884 7.31163C22.7512 4.87445 19.4467 3.50364 16 3.5ZM17 27.4538V19.5H20C20.2652 19.5 20.5196 19.3946 20.7071 19.2071C20.8946 19.0196 21 18.7652 21 18.5C21 18.2348 20.8946 17.9804 20.7071 17.7929C20.5196 17.6054 20.2652 17.5 20 17.5H17V14.5C17 13.9696 17.2107 13.4609 17.5858 13.0858C17.9609 12.7107 18.4696 12.5 19 12.5H21C21.2652 12.5 21.5196 12.3946 21.7071 12.2071C21.8946 12.0196 22 11.7652 22 11.5C22 11.2348 21.8946 10.9804 21.7071 10.7929C21.5196 10.6054 21.2652 10.5 21 10.5H19C17.9391 10.5 16.9217 10.9214 16.1716 11.6716C15.4214 12.4217 15 13.4391 15 14.5V17.5H12C11.7348 17.5 11.4804 17.6054 11.2929 17.7929C11.1054 17.9804 11 18.2348 11 18.5C11 18.7652 11.1054 19.0196 11.2929 19.2071C11.4804 19.3946 11.7348 19.5 12 19.5H15V27.4538C12.181 27.1964 9.56971 25.8622 7.7093 23.7287C5.8489 21.5952 4.8826 18.8266 5.0114 15.9988C5.1402 13.171 6.35419 10.5017 8.40085 8.54613C10.4475 6.59057 13.1693 5.4993 16 5.4993C18.8307 5.4993 21.5525 6.59057 23.5992 8.54613C25.6458 10.5017 26.8598 13.171 26.9886 15.9988C27.1174 18.8266 26.1511 21.5952 24.2907 23.7287C22.4303 25.8622 19.819 27.1964 17 27.4538Z" fill="#E2E8F0"/>
</svg>
