<svg width="40" height="40" viewBox="0 0 40 40" fill="none" xmlns="http://www.w3.org/2000/svg">
<rect width="40" height="40" rx="20" fill="#FDD300"/>
<path d="M24.7562 13.4925C24.7562 13.7397 24.6829 13.9814 24.5456 14.187C24.4082 14.3925 24.213 14.5527 23.9846 14.6473C23.7562 14.742 23.5048 14.7667 23.2624 14.7185C23.0199 14.6702 22.7972 14.5512 22.6224 14.3764C22.4475 14.2016 22.3285 13.9788 22.2803 13.7364C22.232 13.4939 22.2568 13.2426 22.3514 13.0141C22.446 12.7857 22.6062 12.5905 22.8118 12.4532C23.0173 12.3158 23.259 12.2425 23.5062 12.2425C23.8378 12.2425 24.1557 12.3742 24.3901 12.6086C24.6245 12.843 24.7562 13.161 24.7562 13.4925ZM29.7937 23.4662C27.2225 26.7325 23.095 28.5 17.5212 28.7225L14.705 35.295C14.6472 35.4301 14.551 35.5452 14.4283 35.6261C14.3056 35.707 14.1619 35.7501 14.015 35.75H13.9675C13.8129 35.7402 13.6652 35.6828 13.5445 35.5857C13.4239 35.4885 13.3363 35.3564 13.2937 35.2075L11.405 28.595L4.79374 26.7012C4.64461 26.6588 4.51231 26.5712 4.41505 26.4504C4.31778 26.3297 4.26033 26.1817 4.25059 26.027C4.24086 25.8722 4.27933 25.7183 4.3607 25.5863C4.44208 25.4543 4.56236 25.3508 4.70499 25.29L11.2775 22.4787C11.5 16.9037 13.27 12.7775 16.5375 10.2062C21.85 6.025 29.4637 7.40375 30.935 7.72375C31.2637 7.79465 31.5649 7.95874 31.8028 8.19638C32.0407 8.43402 32.205 8.73515 32.2762 9.06375C32.595 10.5375 33.975 18.1537 29.7937 23.4662ZM24.875 25.5337C23.5888 25.1852 22.4473 24.4354 21.6166 23.3934C20.7859 22.3514 20.3094 21.0715 20.2562 19.74C18.926 19.6858 17.6476 19.2092 16.6065 18.3794C15.5654 17.5495 14.8158 16.4096 14.4662 15.125C13.4087 17.2425 12.8412 19.875 12.7612 23C12.7581 23.1438 12.7136 23.2837 12.6331 23.4029C12.5527 23.5221 12.4396 23.6157 12.3075 23.6725L7.23499 25.84L12.2187 27.2675C12.3413 27.3025 12.4528 27.3682 12.5429 27.4583C12.6331 27.5484 12.6987 27.66 12.7337 27.7825L14.1562 32.765L16.33 27.6925C16.3864 27.5605 16.4795 27.4474 16.5983 27.3668C16.7171 27.2861 16.8565 27.2413 17 27.2375C20.125 27.1637 22.76 26.5925 24.875 25.5337ZM30.81 9.38125C30.7997 9.33422 30.7761 9.29116 30.7419 9.25723C30.7078 9.22331 30.6646 9.19996 30.6175 9.19C29.2612 8.89625 22.25 7.625 17.465 11.385C16.8389 11.879 16.2714 12.4431 15.7737 13.0662C15.7108 13.7616 15.802 14.4623 16.0407 15.1185C16.2795 15.7746 16.6599 16.37 17.155 16.8624C17.6501 17.3547 18.2476 17.7318 18.9051 17.9669C19.5625 18.202 20.2637 18.2893 20.9587 18.2225C21.0689 18.2118 21.1801 18.2257 21.2842 18.2631C21.3884 18.3004 21.483 18.3604 21.5613 18.4387C21.6396 18.5169 21.6995 18.6116 21.7369 18.7157C21.7743 18.8199 21.7881 18.9311 21.7775 19.0412C21.7108 19.7365 21.7983 20.4379 22.0337 21.0955C22.2691 21.7531 22.6466 22.3507 23.1393 22.8457C23.6321 23.3407 24.2279 23.721 24.8844 23.9594C25.5409 24.1978 26.2419 24.2885 26.9375 24.225C27.5594 23.7285 28.1222 23.1623 28.615 22.5375C32.375 17.75 31.1037 10.74 30.81 9.38125Z" fill="#3F3F46"/>
</svg>
