<svg width="41" height="40" viewBox="0 0 41 40" fill="none" xmlns="http://www.w3.org/2000/svg">
<rect x="0.5" width="40" height="40" rx="20" fill="#FDD300"/>
<g clip-path="url(#clip0_2312_1616)">
<path d="M25.2561 13.4926C25.2561 13.7398 25.1828 13.9815 25.0455 14.1871C24.9081 14.3926 24.7129 14.5529 24.4845 14.6475C24.2561 14.7421 24.0048 14.7668 23.7623 14.7186C23.5198 14.6704 23.2971 14.5513 23.1223 14.3765C22.9474 14.2017 22.8284 13.979 22.7802 13.7365C22.7319 13.494 22.7567 13.2427 22.8513 13.0143C22.9459 12.7859 23.1061 12.5906 23.3117 12.4533C23.5172 12.3159 23.7589 12.2426 24.0061 12.2426C24.3377 12.2426 24.6556 12.3743 24.89 12.6087C25.1244 12.8432 25.2561 13.1611 25.2561 13.4926ZM30.2936 23.4664C27.7224 26.7326 23.5949 28.5001 18.0211 28.7226L15.2049 35.2951C15.1471 35.4302 15.0509 35.5454 14.9282 35.6262C14.8056 35.7071 14.6618 35.7502 14.5149 35.7501H14.4674C14.3128 35.7403 14.1651 35.6829 14.0444 35.5858C13.9238 35.4887 13.8362 35.3565 13.7936 35.2076L11.9049 28.5951L5.29364 26.7014C5.14452 26.6589 5.01222 26.5713 4.91495 26.4505C4.81769 26.3298 4.76023 26.1819 4.7505 26.0271C4.74077 25.8724 4.77924 25.7184 4.86061 25.5864C4.94199 25.4544 5.06226 25.3509 5.20489 25.2901L11.7774 22.4789C11.9999 16.9039 13.7699 12.7776 17.0374 10.2064C22.3499 6.02512 29.9636 7.40387 31.4349 7.72387C31.7636 7.79478 32.0648 7.95886 32.3027 8.1965C32.5406 8.43414 32.7049 8.73527 32.7761 9.06387C33.0949 10.5376 34.4749 18.1539 30.2936 23.4664ZM25.3749 25.5339C24.0887 25.1854 22.9472 24.4356 22.1165 23.3935C21.2858 22.3515 20.8093 21.0717 20.7561 19.7401C19.4259 19.6859 18.1475 19.2093 17.1064 18.3795C16.0653 17.5497 15.3157 16.4098 14.9661 15.1251C13.9086 17.2426 13.3411 19.8751 13.2611 23.0001C13.258 23.1439 13.2135 23.2838 13.133 23.403C13.0526 23.5223 12.9396 23.6158 12.8074 23.6726L7.73489 25.8401L12.7186 27.2676C12.8412 27.3026 12.9527 27.3683 13.0429 27.4584C13.133 27.5485 13.1986 27.6601 13.2336 27.7826L14.6561 32.7651L16.8299 27.6926C16.8863 27.5606 16.9794 27.4476 17.0982 27.3669C17.217 27.2863 17.3564 27.2414 17.4999 27.2376C20.6249 27.1639 23.2599 26.5926 25.3749 25.5339ZM31.3099 9.38137C31.2996 9.33434 31.276 9.29128 31.2418 9.25736C31.2077 9.22343 31.1645 9.20008 31.1174 9.19012C29.7611 8.89637 22.7499 7.62512 17.9649 11.3851C17.3388 11.8791 16.7714 12.4432 16.2736 13.0664C16.2107 13.7617 16.3019 14.4624 16.5406 15.1186C16.7794 15.7747 17.1598 16.3701 17.6549 16.8625C18.15 17.3548 18.7475 17.732 19.405 17.9671C20.0624 18.2021 20.7636 18.2894 21.4586 18.2226C21.5688 18.212 21.68 18.2258 21.7842 18.2632C21.8883 18.3006 21.9829 18.3605 22.0612 18.4388C22.1395 18.5171 22.1994 18.6117 22.2368 18.7159C22.2742 18.82 22.2881 18.9312 22.2774 19.0414C22.2107 19.7366 22.2982 20.438 22.5336 21.0956C22.769 21.7532 23.1465 22.3508 23.6392 22.8458C24.132 23.3408 24.7278 23.7211 25.3843 23.9595C26.0408 24.1979 26.7418 24.2886 27.4374 24.2251C28.0593 23.7287 28.6221 23.1625 29.1149 22.5376C32.8749 17.7501 31.6036 10.7401 31.3099 9.38137Z" fill="#3F3F46"/>
</g>
<defs>
<clipPath id="clip0_2312_1616">
<rect width="32" height="32" fill="white" transform="translate(4.5 4)"/>
</clipPath>
</defs>
</svg>
