<svg width="40" height="40" viewBox="0 0 40 40" fill="none" xmlns="http://www.w3.org/2000/svg">
<rect width="40" height="40" rx="20" fill="#FDD300"/>
<path d="M34.7075 9.29251L30.7075 5.29251C30.5199 5.10487 30.2654 4.99945 30 4.99945C29.7346 4.99945 29.4801 5.10487 29.2925 5.29251C29.1049 5.48015 28.9995 5.73464 28.9995 6.00001C28.9995 6.26537 29.1049 6.51987 29.2925 6.70751L29.4775 6.89126L22.5813 12.0638L17.8038 13.02C17.6103 13.0588 17.4325 13.1535 17.2925 13.2925L6.87501 23.7075C6.31244 24.2701 5.9964 25.0331 5.9964 25.8288C5.9964 26.6244 6.31244 27.3874 6.87501 27.95L12.05 33.125C12.6126 33.6876 13.3756 34.0036 14.1713 34.0036C14.9669 34.0036 15.7299 33.6876 16.2925 33.125L26.7075 22.7113C26.8468 22.5715 26.9416 22.3936 26.98 22.2L27.9363 17.4225L33.1088 10.5263L33.2925 10.7113C33.3854 10.8042 33.4957 10.8779 33.6171 10.9282C33.7385 10.9784 33.8686 11.0043 34 11.0043C34.1314 11.0043 34.2615 10.9784 34.3829 10.9282C34.5043 10.8779 34.6146 10.8042 34.7075 10.7113C34.8004 10.6183 34.8741 10.508 34.9244 10.3867C34.9747 10.2653 35.0006 10.1352 35.0006 10.0038C35.0006 9.87236 34.9747 9.74225 34.9244 9.62086C34.8741 9.49947 34.8004 9.38917 34.7075 9.29626V9.29251ZM16 17.4138L22.5863 24L17 29.5863L10.4138 23L16 17.4138ZM14.1713 32C14.04 32.0004 13.9101 31.9747 13.7888 31.9245C13.6676 31.8743 13.5575 31.8005 13.465 31.7075L8.29251 26.535C8.10511 26.3475 7.99985 26.0932 7.99985 25.8281C7.99985 25.563 8.10511 25.3088 8.29251 25.1213L9.00001 24.4138L15.5863 31L14.875 31.7075C14.6882 31.8941 14.4353 31.9992 14.1713 32ZM26.2 16.4C26.1103 16.5193 26.0488 16.6573 26.02 16.8038L25.0788 21.5075L24 22.5863L17.4138 16L18.4925 14.9213L23.1963 13.98C23.3427 13.9512 23.4807 13.8897 23.6 13.8L30.9063 8.32001L31.68 9.09376L26.2 16.4Z" fill="#3F3F46"/>
</svg>
