<svg width="32" height="32" viewBox="0 0 32 32" fill="none" xmlns="http://www.w3.org/2000/svg">
<path d="M24.75 9.455V5C24.75 4.53587 24.5656 4.09075 24.2374 3.76256C23.9092 3.43437 23.4641 3.25 23 3.25H9C8.53587 3.25 8.09075 3.43437 7.76256 3.76256C7.43437 4.09075 7.25 4.53587 7.25 5V9.5C7.25058 9.77158 7.31409 10.0393 7.43554 10.2822C7.55699 10.5251 7.73309 10.7366 7.95 10.9L14.75 16L7.95 21.1C7.73309 21.2634 7.55699 21.4749 7.43554 21.7178C7.31409 21.9607 7.25058 22.2284 7.25 22.5V27C7.25 27.4641 7.43437 27.9092 7.76256 28.2374C8.09075 28.5656 8.53587 28.75 9 28.75H23C23.4641 28.75 23.9092 28.5656 24.2374 28.2374C24.5656 27.9092 24.75 27.4641 24.75 27V22.545C24.7492 22.2745 24.6861 22.0078 24.5656 21.7657C24.4451 21.5235 24.2703 21.3124 24.055 21.1488L17.25 16L24.0613 10.8512C24.2754 10.6869 24.449 10.4755 24.5684 10.2334C24.6878 9.99131 24.75 9.72497 24.75 9.455ZM8.75 5C8.75 4.9337 8.77634 4.87011 8.82322 4.82322C8.87011 4.77634 8.9337 4.75 9 4.75H23C23.0663 4.75 23.1299 4.77634 23.1768 4.82322C23.2237 4.87011 23.25 4.9337 23.25 5V9.455C23.2501 9.49371 23.2413 9.53192 23.2242 9.56662C23.207 9.60133 23.1821 9.63158 23.1513 9.655L22.3625 10.25H9.58375L8.85 9.7C8.81895 9.67671 8.79375 9.64652 8.77639 9.6118C8.75904 9.57709 8.75 9.53881 8.75 9.5V5ZM16 15.0612L11.5837 11.75H20.375L16 15.0612ZM23.25 22.545V27C23.25 27.0663 23.2237 27.1299 23.1768 27.1768C23.1299 27.2237 23.0663 27.25 23 27.25H9C8.9337 27.25 8.87011 27.2237 8.82322 27.1768C8.77634 27.1299 8.75 27.0663 8.75 27V22.5C8.75 22.4612 8.75904 22.4229 8.77639 22.3882C8.79375 22.3535 8.81895 22.3233 8.85 22.3L15.25 17.5V21C15.25 21.1989 15.329 21.3897 15.4697 21.5303C15.6103 21.671 15.8011 21.75 16 21.75C16.1989 21.75 16.3897 21.671 16.5303 21.5303C16.671 21.3897 16.75 21.1989 16.75 21V17.5075L23.1513 22.345C23.1821 22.3684 23.207 22.3987 23.2242 22.4334C23.2413 22.4681 23.2501 22.5063 23.25 22.545Z" fill="#CBD5E1"/>
</svg>
