<svg width="25" height="24" viewBox="0 0 25 24" fill="none" xmlns="http://www.w3.org/2000/svg">
<path d="M21.1149 9.72843L13.6149 2.65218C13.6113 2.64898 13.6078 2.64554 13.6046 2.64187C13.3285 2.39074 12.9686 2.25159 12.5954 2.25159C12.2221 2.25159 11.8623 2.39074 11.5862 2.64187L11.5759 2.65218L4.0843 9.72843C3.93148 9.86895 3.8095 10.0397 3.72607 10.2298C3.64264 10.4199 3.59958 10.6252 3.59961 10.8328V19.5C3.59961 19.8978 3.75764 20.2793 4.03895 20.5607C4.32025 20.842 4.70178 21 5.09961 21H9.59961C9.99743 21 10.379 20.842 10.6603 20.5607C10.9416 20.2793 11.0996 19.8978 11.0996 19.5V15H14.0996V19.5C14.0996 19.8978 14.2576 20.2793 14.5389 20.5607C14.8203 20.842 15.2018 21 15.5996 21H20.0996C20.4974 21 20.879 20.842 21.1603 20.5607C21.4416 20.2793 21.5996 19.8978 21.5996 19.5V10.8328C21.5996 10.6252 21.5566 10.4199 21.4731 10.2298C21.3897 10.0397 21.2677 9.86895 21.1149 9.72843ZM20.0996 19.5H15.5996V15C15.5996 14.6022 15.4416 14.2206 15.1603 13.9393C14.879 13.658 14.4974 13.5 14.0996 13.5H11.0996C10.7018 13.5 10.3203 13.658 10.0389 13.9393C9.75764 14.2206 9.59961 14.6022 9.59961 15V19.5H5.09961V10.8328L5.10992 10.8234L12.5996 3.74999L20.0902 10.8216L20.1005 10.8309L20.0996 19.5Z" fill="#E2E8F0"/>
</svg>
