<svg width="56" height="56" viewBox="0 0 56 56" fill="none" xmlns="http://www.w3.org/2000/svg">
<rect width="56" height="56" rx="28" fill="#FDD300"/>
<path d="M29.75 34C29.75 34.1989 29.671 34.3897 29.5303 34.5303C29.3897 34.671 29.1989 34.75 29 34.75C28.5359 34.75 28.0908 34.5656 27.7626 34.2374C27.4344 33.9092 27.25 33.4641 27.25 33V28C27.25 27.9337 27.2237 27.8701 27.1768 27.8232C27.1299 27.7763 27.0663 27.75 27 27.75C26.8011 27.75 26.6103 27.671 26.4697 27.5303C26.329 27.3897 26.25 27.1989 26.25 27C26.25 26.8011 26.329 26.6103 26.4697 26.4697C26.6103 26.329 26.8011 26.25 27 26.25C27.4641 26.25 27.9093 26.4344 28.2374 26.7626C28.5656 27.0908 28.75 27.5359 28.75 28V33C28.75 33.0663 28.7763 33.1299 28.8232 33.1768C28.8701 33.2237 28.9337 33.25 29 33.25C29.1989 33.25 29.3897 33.329 29.5303 33.4697C29.671 33.6103 29.75 33.8011 29.75 34ZM27.5 23.75C27.7472 23.75 27.9889 23.6767 28.1945 23.5393C28.4 23.402 28.5602 23.2068 28.6549 22.9784C28.7495 22.7499 28.7742 22.4986 28.726 22.2561C28.6778 22.0137 28.5587 21.7909 28.3839 21.6161C28.2091 21.4413 27.9863 21.3222 27.7439 21.274C27.5014 21.2258 27.2501 21.2505 27.0217 21.3452C26.7932 21.4398 26.598 21.6 26.4607 21.8055C26.3233 22.0111 26.25 22.2528 26.25 22.5C26.25 22.8315 26.3817 23.1495 26.6161 23.3839C26.8505 23.6183 27.1685 23.75 27.5 23.75ZM40.75 28C40.75 30.5217 40.0022 32.9868 38.6012 35.0835C37.2003 37.1802 35.209 38.8144 32.8792 39.7795C30.5495 40.7445 27.9859 40.997 25.5126 40.505C23.0393 40.0131 20.7675 38.7987 18.9844 37.0156C17.2013 35.2325 15.987 32.9607 15.495 30.4874C15.003 28.0141 15.2555 25.4505 16.2205 23.1208C17.1856 20.791 18.8198 18.7998 20.9165 17.3988C23.0132 15.9978 25.4783 15.25 28 15.25C31.3803 15.254 34.621 16.5985 37.0112 18.9888C39.4015 21.379 40.746 24.6197 40.75 28ZM39.25 28C39.25 25.775 38.5902 23.5999 37.354 21.7498C36.1179 19.8998 34.3609 18.4578 32.3052 17.6064C30.2495 16.7549 27.9875 16.5321 25.8052 16.9662C23.623 17.4002 21.6184 18.4717 20.0451 20.045C18.4717 21.6184 17.4003 23.6229 16.9662 25.8052C16.5321 27.9875 16.7549 30.2495 17.6064 32.3052C18.4578 34.3609 19.8998 36.1179 21.7498 37.354C23.5999 38.5902 25.775 39.25 28 39.25C30.9827 39.2467 33.8422 38.0604 35.9513 35.9513C38.0604 33.8422 39.2467 30.9827 39.25 28Z" fill="#3F3F46"/>
</svg>
