<svg width="32" height="33" viewBox="0 0 32 33" fill="none" xmlns="http://www.w3.org/2000/svg">
<path d="M16 10.5C14.8133 10.5 13.6533 10.8519 12.6666 11.5112C11.6799 12.1705 10.9108 13.1075 10.4567 14.2039C10.0026 15.3003 9.88378 16.5067 10.1153 17.6705C10.3468 18.8344 10.9182 19.9035 11.7574 20.7426C12.5965 21.5818 13.6656 22.1532 14.8295 22.3847C15.9933 22.6162 17.1997 22.4974 18.2961 22.0433C19.3925 21.5892 20.3295 20.8201 20.9888 19.8334C21.6481 18.8467 22 17.6867 22 16.5C21.9983 14.9092 21.3657 13.384 20.2408 12.2592C19.116 11.1343 17.5908 10.5017 16 10.5ZM16 20.5C15.2089 20.5 14.4355 20.2654 13.7777 19.8259C13.1199 19.3864 12.6072 18.7616 12.3045 18.0307C12.0017 17.2998 11.9225 16.4956 12.0769 15.7196C12.2312 14.9437 12.6122 14.231 13.1716 13.6716C13.731 13.1122 14.4437 12.7312 15.2196 12.5769C15.9956 12.4225 16.7998 12.5017 17.5307 12.8045C18.2616 13.1072 18.8864 13.6199 19.3259 14.2777C19.7654 14.9355 20 15.7089 20 16.5C20 17.5609 19.5786 18.5783 18.8284 19.3284C18.0783 20.0786 17.0609 20.5 16 20.5ZM22 3.5H10C8.14409 3.50199 6.36477 4.24012 5.05245 5.55245C3.74012 6.86477 3.00199 8.64409 3 10.5V22.5C3.00199 24.3559 3.74012 26.1352 5.05245 27.4476C6.36477 28.7599 8.14409 29.498 10 29.5H22C23.8559 29.498 25.6352 28.7599 26.9476 27.4476C28.2599 26.1352 28.998 24.3559 29 22.5V10.5C28.998 8.64409 28.2599 6.86477 26.9476 5.55245C25.6352 4.24012 23.8559 3.50199 22 3.5ZM27 22.5C27 23.8261 26.4732 25.0979 25.5355 26.0355C24.5979 26.9732 23.3261 27.5 22 27.5H10C8.67392 27.5 7.40215 26.9732 6.46447 26.0355C5.52678 25.0979 5 23.8261 5 22.5V10.5C5 9.17392 5.52678 7.90215 6.46447 6.96447C7.40215 6.02678 8.67392 5.5 10 5.5H22C23.3261 5.5 24.5979 6.02678 25.5355 6.96447C26.4732 7.90215 27 9.17392 27 10.5V22.5ZM24 10C24 10.2967 23.912 10.5867 23.7472 10.8334C23.5824 11.08 23.3481 11.2723 23.074 11.3858C22.7999 11.4994 22.4983 11.5291 22.2074 11.4712C21.9164 11.4133 21.6491 11.2704 21.4393 11.0607C21.2296 10.8509 21.0867 10.5836 21.0288 10.2926C20.9709 10.0017 21.0007 9.70006 21.1142 9.42597C21.2277 9.15189 21.42 8.91762 21.6666 8.7528C21.9133 8.58797 22.2033 8.5 22.5 8.5C22.8978 8.5 23.2794 8.65804 23.5607 8.93934C23.842 9.22064 24 9.60218 24 10Z" fill="#E2E8F0"/>
</svg>
