<svg width="41" height="40" viewBox="0 0 41 40" fill="none" xmlns="http://www.w3.org/2000/svg">
<rect x="0.5" width="40" height="40" rx="20" fill="#FDD300"/>
<path d="M32.1812 9.02387C32.1704 8.84038 32.0927 8.66722 31.9628 8.53726C31.8328 8.4073 31.6596 8.32958 31.4762 8.31887C22.0537 7.76387 14.5174 10.5889 11.3162 15.8751C9.13616 19.4739 9.22116 23.7251 11.5399 27.9001L8.96991 30.4701C8.89622 30.5388 8.83712 30.6216 8.79613 30.7136C8.75514 30.8056 8.73309 30.9049 8.73132 31.0056C8.72954 31.1063 8.74807 31.2063 8.78579 31.2997C8.82351 31.3931 8.87965 31.4779 8.95087 31.5492C9.02209 31.6204 9.10692 31.6765 9.20031 31.7142C9.2937 31.752 9.39373 31.7705 9.49443 31.7687C9.59513 31.7669 9.69445 31.7449 9.78645 31.7039C9.87845 31.6629 9.96125 31.6038 10.0299 31.5301L12.5999 28.9601C14.7587 30.1589 16.9374 30.7614 19.0362 30.7614C21.0091 30.7622 22.9436 30.2162 24.6249 29.1839C29.9112 25.9826 32.7349 18.4464 32.1812 9.02387ZM23.8487 27.8989C20.8387 29.7214 17.2687 29.6951 13.7074 27.8501L25.0312 16.5264C25.1636 16.3842 25.2358 16.1961 25.2323 16.0018C25.2289 15.8075 25.1502 15.6222 25.0128 15.4847C24.8754 15.3473 24.69 15.2686 24.4957 15.2652C24.3014 15.2618 24.1133 15.3339 23.9712 15.4664L12.6474 26.7926C10.8024 23.2314 10.7724 19.6676 12.5987 16.6514C15.4337 11.9726 22.1774 9.42637 30.7237 9.78262C31.0737 18.3226 28.5274 25.0676 23.8487 27.9014V27.8989Z" fill="#3F3F46"/>
</svg>
