<svg width="25" height="24" viewBox="0 0 25 24" fill="none" xmlns="http://www.w3.org/2000/svg">
<path d="M14.0531 15.5953C14.0178 15.5604 13.9702 15.5409 13.9206 15.5409C13.871 15.5409 13.8235 15.5604 13.7882 15.5953L11.0648 18.3188C9.80383 19.5797 7.67571 19.7133 6.28352 18.3188C4.88899 16.9242 5.02258 14.7985 6.28352 13.5375L9.00696 10.8141C9.07962 10.7414 9.07962 10.6219 9.00696 10.5492L8.07415 9.61642C8.03891 9.58152 7.99132 9.56195 7.94172 9.56195C7.89213 9.56195 7.84454 9.58152 7.8093 9.61642L5.08586 12.3399C3.10305 14.3227 3.10305 17.5313 5.08586 19.5117C7.06868 21.4922 10.2773 21.4945 12.2577 19.5117L14.9812 16.7883C15.0538 16.7156 15.0538 16.5961 14.9812 16.5235L14.0531 15.5953ZM20.114 4.48595C18.1312 2.50314 14.9226 2.50314 12.9421 4.48595L10.2163 7.20939C10.1814 7.24463 10.1619 7.29222 10.1619 7.34181C10.1619 7.3914 10.1814 7.43899 10.2163 7.47423L11.1468 8.4047C11.2195 8.47736 11.339 8.47736 11.4116 8.4047L14.1351 5.68126C15.396 4.42032 17.5241 4.28673 18.9163 5.68126C20.3109 7.07579 20.1773 9.20158 18.9163 10.4625L16.1929 13.186C16.158 13.2212 16.1384 13.2688 16.1384 13.3184C16.1384 13.368 16.158 13.4156 16.1929 13.4508L17.1257 14.3836C17.1984 14.4563 17.3179 14.4563 17.3906 14.3836L20.114 11.6602C22.0945 9.67736 22.0945 6.46876 20.114 4.48595ZM14.8991 8.72579C14.8639 8.6909 14.8163 8.67132 14.7667 8.67132C14.7171 8.67132 14.6695 8.6909 14.6343 8.72579L9.32571 14.032C9.29081 14.0673 9.27124 14.1149 9.27124 14.1645C9.27124 14.2141 9.29081 14.2616 9.32571 14.2969L10.2538 15.225C10.3265 15.2977 10.446 15.2977 10.5187 15.225L15.8249 9.91876C15.8976 9.84611 15.8976 9.72658 15.8249 9.65392L14.8991 8.72579Z" fill="#CBD5E1"/>
</svg>
