<svg width="25" height="24" viewBox="0 0 25 24" fill="none" xmlns="http://www.w3.org/2000/svg">
<path d="M21.7998 4.5H15.7998C15.2176 4.5 14.6435 4.63554 14.1228 4.8959C13.602 5.15625 13.1491 5.53426 12.7998 6C12.4505 5.53426 11.9976 5.15625 11.4769 4.8959C10.9561 4.63554 10.382 4.5 9.7998 4.5H3.7998C3.40198 4.5 3.02045 4.65804 2.73914 4.93934C2.45784 5.22064 2.2998 5.60218 2.2998 6V18C2.2998 18.3978 2.45784 18.7794 2.73914 19.0607C3.02045 19.342 3.40198 19.5 3.7998 19.5H9.7998C10.3965 19.5 10.9688 19.7371 11.3908 20.159C11.8128 20.581 12.0498 21.1533 12.0498 21.75C12.0498 21.9489 12.1288 22.1397 12.2695 22.2803C12.4101 22.421 12.6009 22.5 12.7998 22.5C12.9987 22.5 13.1895 22.421 13.3301 22.2803C13.4708 22.1397 13.5498 21.9489 13.5498 21.75C13.5498 21.1533 13.7869 20.581 14.2088 20.159C14.6308 19.7371 15.2031 19.5 15.7998 19.5H21.7998C22.1976 19.5 22.5792 19.342 22.8605 19.0607C23.1418 18.7794 23.2998 18.3978 23.2998 18V6C23.2998 5.60218 23.1418 5.22064 22.8605 4.93934C22.5792 4.65804 22.1976 4.5 21.7998 4.5ZM9.7998 18H3.7998V6H9.7998C10.3965 6 10.9688 6.23705 11.3908 6.65901C11.8128 7.08097 12.0498 7.65326 12.0498 8.25V18.75C11.4013 18.262 10.6114 17.9987 9.7998 18ZM21.7998 18H15.7998C14.9882 17.9987 14.1983 18.262 13.5498 18.75V8.25C13.5498 7.65326 13.7869 7.08097 14.2088 6.65901C14.6308 6.23705 15.2031 6 15.7998 6H21.7998V18Z" fill="#E2E8F0"/>
</svg>
