<svg width="52" height="52" viewBox="0 0 52 52" fill="none" xmlns="http://www.w3.org/2000/svg">
<rect width="52" height="52" rx="26" fill="#3F3F46"/>
<path d="M13.55 25.6C13.7091 25.7193 13.9092 25.7706 14.1061 25.7424C14.303 25.7143 14.4807 25.6091 14.6 25.45C15.2287 24.6117 16.044 23.9312 16.9813 23.4626C17.9186 22.994 18.9521 22.75 20 22.75C21.0479 22.75 22.0814 22.994 23.0187 23.4626C23.956 23.9312 24.7713 24.6117 25.4 25.45C25.5195 25.6089 25.6973 25.7139 25.8942 25.7418C26.0911 25.7697 26.291 25.7182 26.45 25.5987C26.5068 25.5569 26.557 25.5068 26.5988 25.45C27.2275 24.6117 28.0428 23.9312 28.9801 23.4626C29.9173 22.994 30.9509 22.75 31.9988 22.75C33.0467 22.75 34.0802 22.994 35.0174 23.4626C35.9547 23.9312 36.77 24.6117 37.3988 25.45C37.5183 25.6091 37.6961 25.7142 37.8931 25.7423C38.0902 25.7703 38.2902 25.7189 38.4494 25.5994C38.6085 25.4798 38.7136 25.302 38.7417 25.105C38.7697 24.908 38.7183 24.7079 38.5988 24.5487C37.6545 23.2841 36.3661 22.3181 34.8875 21.7662C35.6756 21.1625 36.2547 20.3269 36.5434 19.3771C36.8322 18.4272 36.816 17.4107 36.4973 16.4705C36.1785 15.5303 35.5731 14.7135 34.7663 14.1351C33.9594 13.5567 32.9915 13.2456 31.9988 13.2456C31.006 13.2456 30.0381 13.5567 29.2312 14.1351C28.4244 14.7135 27.819 15.5303 27.5003 16.4705C27.1815 17.4107 27.1653 18.4272 27.4541 19.3771C27.7428 20.3269 28.3219 21.1625 29.11 21.7662C27.9272 22.207 26.8626 22.9159 26 23.8375C25.137 22.9158 24.072 22.2068 22.8888 21.7662C23.6768 21.1625 24.2559 20.3269 24.5447 19.3771C24.8334 18.4272 24.8173 17.4107 24.4985 16.4705C24.1797 15.5303 23.5744 14.7135 22.7675 14.1351C21.9606 13.5567 20.9928 13.2456 20 13.2456C19.0072 13.2456 18.0394 13.5567 17.2325 14.1351C16.4256 14.7135 15.8203 15.5303 15.5015 16.4705C15.1827 17.4107 15.1666 18.4272 15.4553 19.3771C15.7441 20.3269 16.3232 21.1625 17.1113 21.7662C15.6323 22.3181 14.3438 23.2846 13.4 24.55C13.2807 24.7091 13.2294 24.9091 13.2575 25.106C13.2857 25.303 13.3909 25.4806 13.55 25.6ZM32 14.75C32.6428 14.75 33.2711 14.9406 33.8056 15.2977C34.3401 15.6548 34.7566 16.1624 35.0026 16.7563C35.2486 17.3501 35.313 18.0036 35.1876 18.634C35.0622 19.2645 34.7526 19.8436 34.2981 20.2981C33.8436 20.7526 33.2645 21.0621 32.634 21.1875C32.0036 21.3129 31.3501 21.2486 30.7563 21.0026C30.1624 20.7566 29.6548 20.34 29.2977 19.8056C28.9406 19.2711 28.75 18.6428 28.75 18C28.75 17.138 29.0924 16.3114 29.7019 15.7019C30.3114 15.0924 31.1381 14.75 32 14.75ZM20 14.75C20.6428 14.75 21.2711 14.9406 21.8056 15.2977C22.3401 15.6548 22.7566 16.1624 23.0026 16.7563C23.2486 17.3501 23.313 18.0036 23.1876 18.634C23.0622 19.2645 22.7526 19.8436 22.2981 20.2981C21.8436 20.7526 21.2645 21.0621 20.634 21.1875C20.0036 21.3129 19.3501 21.2486 18.7563 21.0026C18.1624 20.7566 17.6548 20.34 17.2977 19.8056C16.9406 19.2711 16.75 18.6428 16.75 18C16.75 17.138 17.0924 16.3114 17.7019 15.7019C18.3114 15.0924 19.138 14.75 20 14.75ZM34.8888 34.7662C35.6768 34.1625 36.2559 33.3269 36.5447 32.377C36.8334 31.4272 36.8173 30.4107 36.4985 29.4705C36.1797 28.5303 35.5744 27.7135 34.7675 27.1351C33.9606 26.5567 32.9928 26.2456 32 26.2456C31.0072 26.2456 30.0394 26.5567 29.2325 27.1351C28.4256 27.7135 27.8203 28.5303 27.5015 29.4705C27.1827 30.4107 27.1666 31.4272 27.4553 32.377C27.7441 33.3269 28.3232 34.1625 29.1113 34.7662C27.928 35.2068 26.863 35.9158 26 36.8375C25.137 35.9158 24.072 35.2068 22.8888 34.7662C23.6768 34.1625 24.2559 33.3269 24.5447 32.377C24.8334 31.4272 24.8173 30.4107 24.4985 29.4705C24.1797 28.5303 23.5744 27.7135 22.7675 27.1351C21.9606 26.5567 20.9928 26.2456 20 26.2456C19.0072 26.2456 18.0394 26.5567 17.2325 27.1351C16.4256 27.7135 15.8203 28.5303 15.5015 29.4705C15.1827 30.4107 15.1666 31.4272 15.4553 32.377C15.7441 33.3269 16.3232 34.1625 17.1113 34.7662C15.6323 35.3181 14.3438 36.2846 13.4 37.55C13.3409 37.6288 13.2979 37.7184 13.2735 37.8138C13.249 37.9093 13.2436 38.0085 13.2575 38.106C13.2715 38.2036 13.3045 38.2974 13.3546 38.3821C13.4048 38.4669 13.4712 38.5409 13.55 38.6C13.6288 38.6591 13.7185 38.7021 13.8139 38.7265C13.9093 38.751 14.0086 38.7564 14.1061 38.7424C14.2036 38.7285 14.2974 38.6955 14.3821 38.6453C14.4669 38.5952 14.5409 38.5288 14.6 38.45C15.2287 37.6117 16.044 36.9312 16.9813 36.4626C17.9186 35.994 18.9521 35.75 20 35.75C21.0479 35.75 22.0814 35.994 23.0187 36.4626C23.956 36.9312 24.7713 37.6117 25.4 38.45C25.5195 38.6089 25.6973 38.7139 25.8942 38.7418C26.0911 38.7697 26.291 38.7182 26.45 38.5987C26.5068 38.5569 26.557 38.5068 26.5988 38.45C27.2275 37.6117 28.0428 36.9312 28.9801 36.4626C29.9173 35.994 30.9509 35.75 31.9988 35.75C33.0467 35.75 34.0802 35.994 35.0174 36.4626C35.9547 36.9312 36.77 37.6117 37.3988 38.45C37.5183 38.6091 37.6961 38.7142 37.8931 38.7423C38.0902 38.7703 38.2902 38.7189 38.4494 38.5994C38.6085 38.4798 38.7136 38.302 38.7417 38.105C38.7697 37.908 38.7183 37.7079 38.5988 37.5487C37.6549 36.2843 36.3669 35.3183 34.8888 34.7662ZM20 27.75C20.6428 27.75 21.2711 27.9406 21.8056 28.2977C22.3401 28.6548 22.7566 29.1624 23.0026 29.7563C23.2486 30.3501 23.313 31.0036 23.1876 31.634C23.0622 32.2645 22.7526 32.8436 22.2981 33.2981C21.8436 33.7526 21.2645 34.0621 20.634 34.1875C20.0036 34.3129 19.3501 34.2486 18.7563 34.0026C18.1624 33.7566 17.6548 33.34 17.2977 32.8056C16.9406 32.2711 16.75 31.6428 16.75 31C16.75 30.138 17.0924 29.3114 17.7019 28.7019C18.3114 28.0924 19.138 27.75 20 27.75ZM32 27.75C32.6428 27.75 33.2711 27.9406 33.8056 28.2977C34.3401 28.6548 34.7566 29.1624 35.0026 29.7563C35.2486 30.3501 35.313 31.0036 35.1876 31.634C35.0622 32.2645 34.7526 32.8436 34.2981 33.2981C33.8436 33.7526 33.2645 34.0621 32.634 34.1875C32.0036 34.3129 31.3501 34.2486 30.7563 34.0026C30.1624 33.7566 29.6548 33.34 29.2977 32.8056C28.9406 32.2711 28.75 31.6428 28.75 31C28.75 30.138 29.0924 29.3114 29.7019 28.7019C30.3114 28.0924 31.1381 27.75 32 27.75Z" fill="#FDD300"/>
</svg>
