<svg width="32" height="32" viewBox="0 0 32 32" fill="none" xmlns="http://www.w3.org/2000/svg">
<path d="M29.2975 26.25C27.5837 23.2421 24.9076 20.8984 21.7 19.5962C23.2951 18.3999 24.4734 16.732 25.0679 14.8288C25.6624 12.9256 25.643 10.8836 25.0125 8.99205C24.382 7.10049 23.1723 5.45526 21.5547 4.28942C19.9372 3.12357 17.9939 2.49622 16 2.49622C14.0061 2.49622 12.0628 3.12357 10.4452 4.28942C8.82772 5.45526 7.61802 7.10049 6.9875 8.99205C6.35698 10.8836 6.3376 12.9256 6.93212 14.8288C7.52663 16.732 8.70489 18.3999 10.3 19.5962C7.0924 20.8984 4.4163 23.2421 2.70249 26.25C2.5963 26.4207 2.52552 26.6111 2.49437 26.8097C2.46322 27.0084 2.47232 27.2113 2.52115 27.4063C2.56997 27.6014 2.65752 27.7847 2.77858 27.9452C2.89964 28.1058 3.05175 28.2403 3.22586 28.3409C3.39997 28.4415 3.59253 28.5061 3.79209 28.5308C3.99165 28.5555 4.19414 28.5398 4.38752 28.4847C4.58089 28.4295 4.76121 28.3361 4.91775 28.2099C5.07429 28.0836 5.20386 27.9273 5.29874 27.75C7.56374 23.835 11.5637 21.5 16 21.5C20.4362 21.5 24.4362 23.8362 26.7012 27.75C26.9069 28.0806 27.2331 28.3184 27.6108 28.4129C27.9885 28.5075 28.3882 28.4514 28.7254 28.2566C29.0626 28.0618 29.3108 27.7435 29.4175 27.3691C29.5243 26.9946 29.4812 26.5933 29.2975 26.25ZM9.49999 12C9.49999 10.7144 9.88121 9.45768 10.5954 8.38876C11.3097 7.31984 12.3248 6.48672 13.5126 5.99475C14.7003 5.50278 16.0072 5.37406 17.2681 5.62486C18.529 5.87567 19.6871 6.49473 20.5962 7.40377C21.5052 8.31281 22.1243 9.471 22.3751 10.7319C22.6259 11.9928 22.4972 13.2997 22.0052 14.4874C21.5132 15.6751 20.6801 16.6903 19.6112 17.4045C18.5423 18.1187 17.2856 18.5 16 18.5C14.2767 18.498 12.6245 17.8125 11.406 16.594C10.1874 15.3754 9.50198 13.7233 9.49999 12Z" fill="#CBD5E1"/>
</svg>
