<svg width="32" height="32" viewBox="0 0 32 32" fill="none" xmlns="http://www.w3.org/2000/svg">
<path d="M27.6988 20.0376L21.7938 17.3913C21.5262 17.2767 21.2343 17.2306 20.9444 17.2572C20.6546 17.2838 20.3759 17.3824 20.1338 17.5438C20.1092 17.5596 20.0858 17.5771 20.0638 17.5963L16.9775 20.2213C16.9455 20.2388 16.9098 20.2485 16.8734 20.2498C16.837 20.2512 16.8007 20.244 16.7675 20.2288C14.7838 19.2713 12.7288 17.2288 11.7675 15.2726C11.7515 15.2399 11.7432 15.204 11.7432 15.1676C11.7432 15.1312 11.7515 15.0953 11.7675 15.0626L14.4013 11.9376C14.4202 11.9144 14.4377 11.8902 14.4538 11.8651C14.613 11.622 14.7092 11.343 14.7336 11.0534C14.7581 10.7638 14.71 10.4727 14.5938 10.2063L11.9663 4.31132C11.8171 3.96333 11.559 3.67312 11.2308 3.48425C10.9027 3.29538 10.5221 3.21803 10.1463 3.26382C8.5128 3.47857 7.01341 4.28074 5.92829 5.52045C4.84318 6.76015 4.24659 8.35255 4.25001 10.0001C4.25001 19.7876 12.2125 27.7501 22 27.7501C23.6475 27.7532 25.2397 27.1565 26.4794 26.0715C27.719 24.9864 28.5213 23.4872 28.7363 21.8538C28.782 21.4797 28.7057 21.1009 28.5187 20.7736C28.3318 20.4464 28.0442 20.1882 27.6988 20.0376ZM22 26.2501C13.04 26.2501 5.75001 18.9601 5.75001 10.0001C5.74584 8.71748 6.20877 7.47725 7.05232 6.51108C7.89587 5.54492 9.06233 4.91893 10.3338 4.75007H10.3625C10.4129 4.75101 10.4618 4.76715 10.5028 4.79637C10.5439 4.82559 10.5751 4.86653 10.5925 4.91382L13.23 10.8026C13.2451 10.8353 13.2528 10.8709 13.2528 10.9069C13.2528 10.943 13.2451 10.9786 13.23 11.0113L10.5913 14.1438C10.5716 14.1662 10.5536 14.19 10.5375 14.2151C10.3724 14.4671 10.2752 14.7576 10.2552 15.0583C10.2353 15.3589 10.2934 15.6597 10.4238 15.9313C11.5325 18.2013 13.82 20.4713 16.115 21.5801C16.3883 21.7098 16.6905 21.7664 16.9921 21.7445C17.2938 21.7226 17.5846 21.6229 17.8363 21.4551C17.86 21.4388 17.8838 21.4213 17.9063 21.4026L20.9913 18.7776C21.0217 18.7612 21.0554 18.7516 21.0899 18.7494C21.1244 18.7473 21.159 18.7526 21.1913 18.7651L27.0975 21.4113C27.1458 21.4319 27.1863 21.4671 27.2135 21.5119C27.2406 21.5568 27.253 21.6091 27.2488 21.6613C27.0808 22.9333 26.4554 24.1007 25.4894 24.9452C24.5235 25.7897 23.2831 26.2535 22 26.2501Z" fill="#CBD5E1"/>
</svg>
