<svg width="32" height="32" viewBox="0 0 32 32" fill="none" xmlns="http://www.w3.org/2000/svg">
<path d="M16 7.5C14.9122 7.5 13.8488 7.82257 12.9444 8.42692C12.0399 9.03126 11.3349 9.89025 10.9187 10.8952C10.5024 11.9002 10.3935 13.0061 10.6057 14.073C10.8179 15.1399 11.3417 16.1199 12.1109 16.8891C12.8801 17.6583 13.8601 18.1821 14.927 18.3943C15.9939 18.6065 17.0998 18.4976 18.1048 18.0813C19.1098 17.6651 19.9687 16.9601 20.5731 16.0556C21.1774 15.1512 21.5 14.0878 21.5 13C21.4983 11.5418 20.9184 10.1438 19.8873 9.11274C18.8562 8.08165 17.4582 7.50165 16 7.5ZM16 15.5C15.5055 15.5 15.0222 15.3534 14.6111 15.0787C14.2 14.804 13.8795 14.4135 13.6903 13.9567C13.5011 13.4999 13.4516 12.9972 13.548 12.5123C13.6445 12.0273 13.8826 11.5819 14.2322 11.2322C14.5819 10.8826 15.0273 10.6445 15.5123 10.548C15.9972 10.4516 16.4999 10.5011 16.9567 10.6903C17.4135 10.8795 17.804 11.2 18.0787 11.6111C18.3534 12.0222 18.5 12.5055 18.5 13C18.5 13.663 18.2366 14.2989 17.7678 14.7678C17.2989 15.2366 16.663 15.5 16 15.5ZM16 1.5C12.951 1.50331 10.0279 2.71597 7.87193 4.87193C5.71597 7.02788 4.50331 9.95103 4.5 13C4.5 22.67 14.705 29.925 15.14 30.2288C15.3921 30.4052 15.6923 30.4998 16 30.4998C16.3077 30.4998 16.6079 30.4052 16.86 30.2288C18.7928 28.8043 20.5612 27.1692 22.1325 25.3538C25.6437 21.3213 27.5 17.0462 27.5 13C27.4967 9.95103 26.284 7.02788 24.1281 4.87193C21.9721 2.71597 19.049 1.50331 16 1.5ZM19.9125 23.3388C18.7207 24.7078 17.4115 25.9701 16 27.1112C14.5885 25.9701 13.2793 24.7078 12.0875 23.3388C10 20.9213 7.5 17.1637 7.5 13C7.5 10.7457 8.39553 8.58365 9.98959 6.98959C11.5837 5.39553 13.7457 4.5 16 4.5C18.2543 4.5 20.4163 5.39553 22.0104 6.98959C23.6045 8.58365 24.5 10.7457 24.5 13C24.5 17.1637 22 20.9213 19.9125 23.3388Z" fill="#CBD5E1"/>
</svg>
