<svg width="24" height="24" viewBox="0 0 24 24" fill="none" xmlns="http://www.w3.org/2000/svg">
<path d="M19 9.00031V13.0003C19 13.1992 18.921 13.39 18.7803 13.5306C18.6397 13.6713 18.4489 13.7503 18.25 13.7503H14.25C14.0511 13.7503 13.8603 13.6713 13.7197 13.5306C13.579 13.39 13.5 13.1992 13.5 13.0003C13.5 12.8014 13.579 12.6106 13.7197 12.47C13.8603 12.3293 14.0511 12.2503 14.25 12.2503H16.4312L15.4637 11.2897C14.7297 10.5551 13.7943 10.0547 12.7758 9.85174C11.7573 9.64883 10.7015 9.75254 9.74197 10.1498C8.78243 10.547 7.96225 11.2198 7.38517 12.0832C6.80809 12.9466 6.50005 13.9618 6.5 15.0003C6.5 15.1992 6.42098 15.39 6.28033 15.5306C6.13968 15.6713 5.94891 15.7503 5.75 15.7503C5.55109 15.7503 5.36032 15.6713 5.21967 15.5306C5.07902 15.39 5 15.1992 5 15.0003C4.99994 13.6652 5.39579 12.3601 6.13748 11.2501C6.87918 10.14 7.93341 9.27475 9.16685 8.76383C10.4003 8.25292 11.7575 8.11924 13.0669 8.37972C14.3764 8.64019 15.5791 9.28312 16.5231 10.2272L17.5 11.1978V9.00031C17.5 8.8014 17.579 8.61063 17.7197 8.46998C17.8603 8.32933 18.0511 8.25031 18.25 8.25031C18.4489 8.25031 18.6397 8.32933 18.7803 8.46998C18.921 8.61063 19 8.8014 19 9.00031Z" fill="#F1F5F9"/>
</svg>
