<svg width="52" height="52" viewBox="0 0 52 52" fill="none" xmlns="http://www.w3.org/2000/svg">
<rect width="52" height="52" rx="26" fill="#3F3F46"/>
<path d="M34.7501 18V15C34.7501 14.5359 34.5657 14.0908 34.2375 13.7626C33.9093 13.4344 33.4642 13.25 33.0001 13.25H19.0001C18.5359 13.25 18.0908 13.4344 17.7626 13.7626C17.4344 14.0908 17.2501 14.5359 17.2501 15V18C17.2501 18.4641 17.4344 18.9092 17.7626 19.2374C18.0908 19.5656 18.5359 19.75 19.0001 19.75H20.1251L17.2588 37.8825C17.2433 37.9799 17.2472 38.0795 17.2703 38.1754C17.2933 38.2713 17.3351 38.3618 17.3931 38.4416C17.4512 38.5213 17.5244 38.5889 17.6086 38.6403C17.6928 38.6917 17.7863 38.726 17.8838 38.7412C17.9812 38.7566 18.0806 38.7525 18.1764 38.7294C18.2721 38.7063 18.3624 38.6645 18.4421 38.6064C18.5217 38.5484 18.5891 38.4752 18.6405 38.3911C18.6918 38.307 18.7261 38.2136 18.7413 38.1162L19.7501 31.75H32.2501L33.2501 38.1162C33.2654 38.2136 33.2998 38.307 33.3512 38.391C33.4026 38.4751 33.4701 38.5482 33.5498 38.6062C33.6295 38.6641 33.7198 38.7059 33.8156 38.7289C33.9114 38.752 34.0108 38.756 34.1082 38.7406C34.2055 38.7253 34.2989 38.6909 34.383 38.6395C34.467 38.588 34.5401 38.5206 34.5981 38.4409C34.6561 38.3612 34.6978 38.2709 34.7209 38.1751C34.7439 38.0793 34.7479 37.9798 34.7326 37.8825L31.8751 19.75H33.0001C33.4642 19.75 33.9093 19.5656 34.2375 19.2374C34.5657 18.9092 34.7501 18.4641 34.7501 18ZM18.7501 18V15C18.7501 14.9337 18.7764 14.8701 18.8233 14.8232C18.8702 14.7763 18.9338 14.75 19.0001 14.75H33.0001C33.0664 14.75 33.13 14.7763 33.1768 14.8232C33.2237 14.8701 33.2501 14.9337 33.2501 15V18C33.2501 18.0663 33.2237 18.1299 33.1768 18.1768C33.13 18.2237 33.0664 18.25 33.0001 18.25H19.0001C18.9338 18.25 18.8702 18.2237 18.8233 18.1768C18.7764 18.1299 18.7501 18.0663 18.7501 18ZM32.0176 30.25H19.9826L21.6413 19.75H30.3588L32.0176 30.25Z" fill="#FDD300"/>
</svg>
