<svg width="32" height="32" viewBox="0 0 32 32" fill="none" xmlns="http://www.w3.org/2000/svg">
<path d="M20.5475 22.6375C21.4703 21.734 22.103 20.5762 22.3649 19.3116C22.6269 18.047 22.5062 16.7331 22.0183 15.5374C21.5304 14.3417 20.6973 13.3184 19.6255 12.5981C18.5536 11.8778 17.2914 11.4932 16 11.4932C14.7086 11.4932 13.4465 11.8778 12.3746 12.5981C11.3027 13.3184 10.4697 14.3417 9.98179 15.5374C9.49388 16.7331 9.3732 18.047 9.63515 19.3116C9.89709 20.5762 10.5298 21.734 11.4525 22.6375C9.89021 23.468 8.59129 24.7189 7.70253 26.2488C7.51219 26.5927 7.46447 26.9976 7.56963 27.3764C7.67479 27.7551 7.92443 28.0775 8.26483 28.2741C8.60524 28.4706 9.0092 28.5257 9.38982 28.4275C9.77043 28.3293 10.0973 28.0855 10.3 27.7488C10.8862 26.7585 11.7202 25.9379 12.7199 25.3679C13.7196 24.7979 14.8505 24.4982 16.0013 24.4982C17.1521 24.4982 18.283 24.7979 19.2827 25.3679C20.2824 25.9379 21.1164 26.7585 21.7025 27.7488C21.799 27.9232 21.9293 28.0765 22.0857 28.2C22.2422 28.3234 22.4216 28.4145 22.6137 28.4678C22.8057 28.5211 23.0064 28.5356 23.2041 28.5105C23.4018 28.4854 23.5925 28.4211 23.7651 28.3214C23.9377 28.2218 24.0886 28.0887 24.2092 27.9301C24.3298 27.7714 24.4176 27.5903 24.4674 27.3973C24.5172 27.2044 24.528 27.0034 24.4993 26.8062C24.4706 26.609 24.4028 26.4195 24.3 26.2488C23.4106 24.7185 22.1108 23.4676 20.5475 22.6375ZM12.5 18C12.5 17.3078 12.7053 16.6311 13.0899 16.0555C13.4745 15.48 14.0211 15.0314 14.6606 14.7665C15.3002 14.5016 16.0039 14.4322 16.6828 14.5673C17.3618 14.7023 17.9854 15.0357 18.4749 15.5252C18.9644 16.0146 19.2977 16.6383 19.4328 17.3172C19.5678 17.9962 19.4985 18.6999 19.2336 19.3394C18.9687 19.979 18.5201 20.5256 17.9445 20.9102C17.3689 21.2948 16.6923 21.5 16 21.5C15.0718 21.5 14.1815 21.1313 13.5252 20.4749C12.8688 19.8185 12.5 18.9283 12.5 18ZM30.9013 19.1988C30.7437 19.3172 30.5644 19.4035 30.3735 19.4526C30.1826 19.5017 29.9839 19.5126 29.7887 19.4849C29.5936 19.4572 29.4058 19.3912 29.2362 19.2909C29.0665 19.1905 28.9183 19.0577 28.8 18.9C27.7588 17.5138 26.3188 16.4513 25.1338 16.195C24.8187 16.1269 24.5339 15.959 24.3217 15.7164C24.1095 15.4737 23.9811 15.1691 23.9556 14.8477C23.93 14.5264 24.0087 14.2053 24.18 13.9322C24.3512 13.659 24.6059 13.4483 24.9063 13.3313C25.2803 13.1853 25.6136 12.9514 25.8781 12.6493C26.1425 12.3473 26.3304 11.986 26.4257 11.596C26.521 11.206 26.521 10.7988 26.4257 10.4088C26.3304 10.0188 26.1425 9.65755 25.8781 9.35551C25.6136 9.05347 25.2803 8.81956 24.9063 8.67357C24.5323 8.52759 24.1286 8.47381 23.7295 8.5168C23.3303 8.5598 22.9474 8.69829 22.6131 8.92056C22.2787 9.14283 22.0029 9.44235 21.8088 9.79379C21.7167 9.97188 21.5899 10.1297 21.4358 10.258C21.2818 10.3862 21.1035 10.4823 20.9117 10.5405C20.7199 10.5987 20.5183 10.6178 20.3189 10.5968C20.1196 10.5758 19.9264 10.515 19.751 10.4181C19.5755 10.3211 19.4212 10.19 19.2973 10.0325C19.1733 9.87489 19.0822 9.69407 19.0293 9.5007C18.9765 9.30733 18.9629 9.10532 18.9894 8.90661C19.0159 8.7079 19.082 8.51652 19.1838 8.34379C19.5549 7.68747 20.0571 7.11448 20.6591 6.66042C21.261 6.20635 21.9499 5.8809 22.6829 5.70428C23.4159 5.52767 24.1774 5.50366 24.9201 5.63375C25.6628 5.76384 26.3708 6.04524 27.0002 6.46049C27.6296 6.87574 28.1668 7.41596 28.5786 8.04759C28.9904 8.67922 29.2679 9.38877 29.3939 10.1322C29.5199 10.8756 29.4917 11.6369 29.311 12.369C29.1304 13.101 28.8011 13.7881 28.3438 14.3875C29.4444 15.1207 30.4106 16.0378 31.2 17.0988C31.4389 17.4169 31.5415 17.8168 31.4855 18.2107C31.4295 18.6045 31.2193 18.9599 30.9013 19.1988ZM6.86628 16.1988C5.68128 16.455 4.24128 17.5175 3.20003 18.905C2.9605 19.2231 2.60443 19.433 2.21013 19.4886C1.81584 19.5442 1.41562 19.4408 1.09753 19.2013C0.779432 18.9618 0.569517 18.6057 0.513959 18.2114C0.458402 17.8171 0.561753 17.4169 0.801276 17.0988C1.59107 16.0381 2.55721 15.1211 3.65753 14.3875C3.20015 13.7881 2.87092 13.101 2.69027 12.369C2.50963 11.6369 2.48143 10.8756 2.60743 10.1322C2.73343 9.38877 3.01094 8.67922 3.42272 8.04759C3.8345 7.41596 4.37175 6.87574 5.0011 6.46049C5.63046 6.04524 6.33847 5.76384 7.08117 5.63375C7.82386 5.50366 8.58537 5.52767 9.3184 5.70428C10.0514 5.8809 10.7403 6.20635 11.3423 6.66042C11.9442 7.11448 12.4464 7.68747 12.8175 8.34379C12.9193 8.51652 12.9854 8.7079 13.0119 8.90661C13.0384 9.10532 13.0248 9.30733 12.972 9.5007C12.9191 9.69407 12.828 9.87489 12.704 10.0325C12.5801 10.19 12.4258 10.3211 12.2503 10.4181C12.0749 10.515 11.8817 10.5758 11.6824 10.5968C11.483 10.6178 11.2814 10.5987 11.0896 10.5405C10.8978 10.4823 10.7195 10.3862 10.5655 10.258C10.4114 10.1297 10.2846 9.97188 10.1925 9.79379C9.99843 9.44235 9.72256 9.14283 9.38824 8.92056C9.05392 8.69829 8.67098 8.5598 8.27182 8.5168C7.87266 8.47381 7.46901 8.52759 7.09503 8.67357C6.72104 8.81956 6.38772 9.05347 6.12324 9.35551C5.85877 9.65755 5.67092 10.0188 5.5756 10.4088C5.48028 10.7988 5.48028 11.206 5.5756 11.596C5.67092 11.986 5.85877 12.3473 6.12324 12.6493C6.38771 12.9514 6.72104 13.1853 7.09503 13.3313C7.39541 13.4483 7.65009 13.659 7.82133 13.9322C7.99257 14.2053 8.07126 14.5264 8.04573 14.8477C8.0202 15.1691 7.89181 15.4737 7.67959 15.7164C7.46738 15.959 7.18262 16.1269 6.86753 16.195L6.86628 16.1988Z" fill="#1E293B"/>
</svg>
