<svg width="40" height="40" viewBox="0 0 40 40" fill="none" xmlns="http://www.w3.org/2000/svg">
<rect width="40" height="40" rx="20" fill="#FDD300"/>
<path d="M32 15C32.0032 12.6756 31.3285 10.4007 30.0588 8.45375C29.9679 8.31444 29.8437 8.19998 29.6975 8.12075C29.5513 8.04152 29.3876 8.00002 29.2213 8H10.7788C10.6124 8.00002 10.4488 8.04152 10.3025 8.12075C10.1563 8.19998 10.0321 8.31444 9.94126 8.45375C8.67148 10.4007 7.99687 12.6756 8.00001 15C8.00365 18.0084 9.13572 20.9059 11.1725 23.1199C13.2092 25.334 16.0024 26.7034 19 26.9575V31H15C14.7348 31 14.4804 31.1054 14.2929 31.2929C14.1054 31.4804 14 31.7348 14 32C14 32.2652 14.1054 32.5196 14.2929 32.7071C14.4804 32.8946 14.7348 33 15 33H25C25.2652 33 25.5196 32.8946 25.7071 32.7071C25.8947 32.5196 26 32.2652 26 32C26 31.7348 25.8947 31.4804 25.7071 31.2929C25.5196 31.1054 25.2652 31 25 31H21V26.9575C23.9976 26.7034 26.7908 25.334 28.8276 23.1199C30.8643 20.9059 31.9964 18.0084 32 15ZM11.3375 10H28.6625C29.3718 11.2263 29.8108 12.5902 29.95 14H10.05C10.1892 12.5902 10.6282 11.2263 11.3375 10ZM20 25C17.5218 24.997 15.1328 24.0751 13.2949 22.4127C11.4571 20.7503 10.3009 18.4654 10.05 16H29.95C29.6991 18.4654 28.543 20.7503 26.7051 22.4127C24.8672 24.0751 22.4782 24.997 20 25Z" fill="#3F3F46"/>
</svg>
