<svg width="40" height="40" viewBox="0 0 40 40" fill="none" xmlns="http://www.w3.org/2000/svg">
<rect width="40" height="40" rx="20" fill="#FDD300"/>
<path d="M29.6662 15.9587L26.945 6.7175C26.884 6.51046 26.7577 6.3287 26.5849 6.19937C26.4121 6.07005 26.2021 6.00011 25.9862 6H14.0137C13.7979 6.00011 13.5879 6.07005 13.4151 6.19937C13.2423 6.3287 13.116 6.51046 13.055 6.7175L10.3337 15.9587C9.90679 17.3752 9.88445 18.8828 10.2692 20.3113C10.654 21.7397 11.4306 23.0322 12.5112 24.0425C14.2889 25.7095 16.5729 26.7343 19 26.9538V32H15C14.7348 32 14.4804 32.1054 14.2929 32.2929C14.1053 32.4804 14 32.7348 14 33C14 33.2652 14.1053 33.5196 14.2929 33.7071C14.4804 33.8946 14.7348 34 15 34H25C25.2652 34 25.5196 33.8946 25.7071 33.7071C25.8946 33.5196 26 33.2652 26 33C26 32.7348 25.8946 32.4804 25.7071 32.2929C25.5196 32.1054 25.2652 32 25 32H21V26.9538C23.427 26.7341 25.711 25.7094 27.4887 24.0425C28.5694 23.0322 29.346 21.7397 29.7308 20.3113C30.1155 18.8828 30.0932 17.3752 29.6662 15.9587ZM14.7612 8H25.2387L27.75 16.5238C27.7612 16.5613 27.7712 16.5987 27.7812 16.6362C25.1037 17.5962 22.0887 16.4363 20.4525 15.6075C17.3037 14.0138 14.8037 13.8113 12.96 14.1163L14.7612 8ZM26.125 22.5812C24.4645 24.1361 22.2748 25.0012 20 25.0012C17.7252 25.0012 15.5355 24.1361 13.875 22.5812C13.0663 21.8234 12.4857 20.8547 12.1985 19.7843C11.9114 18.7139 11.9292 17.5845 12.25 16.5238L12.3062 16.3337C13.8062 15.8262 16.19 15.6912 19.5475 17.3925C20.9412 18.0987 23.1925 18.9987 25.6012 18.9987C26.4063 19.0027 27.2079 18.8933 27.9825 18.6737C27.8805 20.1645 27.2166 21.561 26.125 22.5812Z" fill="#3F3F46"/>
</svg>
