<svg width="16" height="16" viewBox="0 0 16 16" fill="none" xmlns="http://www.w3.org/2000/svg">
<path d="M11 7.99996C11 8.79561 10.6839 9.55867 10.1213 10.1213C9.55871 10.6839 8.79565 11 8 11C7.20435 11 6.44129 10.6839 5.87868 10.1213C5.31607 9.55867 5 8.79561 5 7.99996C5 7.20431 5.31607 6.44125 5.87868 5.87864C6.44129 5.31603 7.20435 4.99996 8 4.99996C8.79565 4.99996 9.55871 5.31603 10.1213 5.87864C10.6839 6.44125 11 7.20431 11 7.99996ZM11 7.99996C11 9.10462 11.6713 9.99996 12.5 9.99996C13.3287 9.99996 14 9.10462 14 7.99996C14 6.61183 13.5187 5.26664 12.638 4.19361C11.7574 3.12058 10.532 2.38609 9.1705 2.11529C7.80903 1.84449 6.3958 2.05413 5.17158 2.7085C3.94736 3.36287 2.98791 4.42148 2.45671 5.70395C1.9255 6.98642 1.85541 8.4134 2.25837 9.74176C2.66133 11.0701 3.51242 12.2177 4.66661 12.9888C5.82081 13.76 7.2067 14.1072 8.58814 13.9711C9.96959 13.835 11.2611 13.2242 12.2427 12.2426M11 7.99996V5.49996" stroke="#64748B" stroke-width="1.5" stroke-linecap="round"/>
</svg>
