<svg width="12" height="12" viewBox="0 0 12 12" fill="none" xmlns="http://www.w3.org/2000/svg">
<path d="M2.25 10.5C2.25 10.5 1.5 10.5 1.5 9.75C1.5 9 2.25 6.75 6 6.75C9.75 6.75 10.5 9 10.5 9.75C10.5 10.5 9.75 10.5 9.75 10.5H2.25ZM6 6C6.59674 6 7.16903 5.76295 7.59099 5.34099C8.01295 4.91903 8.25 4.34674 8.25 3.75C8.25 3.15326 8.01295 2.58097 7.59099 2.15901C7.16903 1.73705 6.59674 1.5 6 1.5C5.40326 1.5 4.83097 1.73705 4.40901 2.15901C3.98705 2.58097 3.75 3.15326 3.75 3.75C3.75 4.34674 3.98705 4.91903 4.40901 5.34099C4.83097 5.76295 5.40326 6 6 6Z" fill="#64748B"/>
</svg>
